<svg width="15" height="15" viewBox="0 0 15 15" fill="none" xmlns="http://www.w3.org/2000/svg">
<g id="Shape">
<path id="Vector" fill-rule="evenodd" clip-rule="evenodd" d="M6.85726 4.09739C5.94136 2.82569 4.20162 2.63305 3.05284 3.65843C1.87985 4.7054 1.80767 6.58276 2.90105 7.72488L7.49996 12.3615L12.0988 7.72489C13.1923 6.58277 13.1201 4.70541 11.9471 3.65843C10.7983 2.63305 9.05858 2.82569 8.14265 4.09739L7.95639 4.356C7.85068 4.50277 7.68084 4.58975 7.49996 4.58975C7.31909 4.58975 7.14925 4.50277 7.04353 4.356L6.85726 4.09739ZM7.49996 3.10509C8.85465 1.6044 11.1494 1.43855 12.6962 2.81912C14.3484 4.2938 14.4429 6.90819 12.9073 8.50725L12.9009 8.51374L8.2312 13.2218C7.82888 13.6364 7.17104 13.6364 6.76872 13.2218L2.09897 8.51374L2.09262 8.50724C0.557017 6.90819 0.651528 4.29381 2.30371 2.81913C3.85044 1.43855 6.14528 1.60439 7.49996 3.10509Z" fill="white" fill-opacity="0.5"/>
</g>
</svg>
