<svg width="1442.2555882153968" height="665.0892" viewBox="4.417563416314408 77.91839999999998 1442.2555882153968 665.0892" fill="none" xmlns="http://www.w3.org/2000/svg">
<g filter="url(#filter0_d_2933_157)">
<path d="M1023 418.5C1023 585.012 887.792 720 721 720C554.208 720 419 585.012 419 418.5C419 251.988 554.208 117 721 117C887.792 117 1023 251.988 1023 418.5Z" fill="#161616" stroke="#D6F84C" stroke-width="2"></path>
<rect x="4" y="277" width="1440" height="488" fill="url(#paint0_linear_2933_157)"></rect>
<path d="M978 224.679C978.07 224.679 978.263 224.713 978.595 225.071C978.924 225.426 979.283 225.987 979.67 226.763C980.441 228.313 981.201 230.464 982.038 232.877C982.086 233.015 982.134 233.154 982.182 233.293C982.968 235.562 983.816 238.009 984.776 240.241C985.79 242.597 986.969 244.811 988.411 246.36C989.4 247.423 990.879 248.418 992.447 249.346C993.505 249.972 994.66 250.601 995.79 251.215C996.342 251.515 996.887 251.812 997.413 252.104C999.049 253.012 1000.5 253.879 1001.55 254.724C1002.65 255.618 1003 256.262 1003 256.679C1003 257.095 1002.65 257.74 1001.55 258.633C1000.5 259.478 999.049 260.345 997.413 261.254C996.887 261.545 996.342 261.842 995.79 262.142C994.66 262.757 993.505 263.385 992.447 264.011C990.879 264.94 989.4 265.934 988.411 266.997C986.969 268.546 985.79 270.76 984.776 273.117C983.816 275.349 982.968 277.795 982.182 280.064C982.134 280.204 982.086 280.342 982.038 280.481C981.201 282.893 980.441 285.044 979.67 286.594C979.283 287.37 978.924 287.932 978.595 288.286C978.263 288.644 978.07 288.679 978 288.679C977.93 288.679 977.737 288.644 977.405 288.286C977.076 287.932 976.717 287.37 976.33 286.594C975.559 285.044 974.799 282.893 973.962 280.481C973.914 280.342 973.866 280.204 973.818 280.064C973.032 277.795 972.184 275.349 971.224 273.117C970.21 270.76 969.031 268.546 967.589 266.997C966.6 265.934 965.121 264.94 963.553 264.011C962.495 263.385 961.34 262.757 960.21 262.142C959.658 261.842 959.113 261.545 958.587 261.254C956.951 260.345 955.495 259.478 954.454 258.633C953.353 257.74 953 257.095 953 256.679C953 256.262 953.353 255.618 954.454 254.724C955.495 253.879 956.951 253.012 958.587 252.104C959.113 251.812 959.658 251.515 960.21 251.215C961.34 250.601 962.495 249.972 963.553 249.346C965.121 248.418 966.6 247.423 967.589 246.36C969.031 244.811 970.21 242.597 971.224 240.241C972.184 238.009 973.032 235.562 973.818 233.293C973.866 233.154 973.914 233.015 973.962 232.877C974.799 230.464 975.559 228.313 976.33 226.763C976.717 225.987 977.076 225.426 977.405 225.071C977.737 224.713 977.93 224.679 978 224.679Z" fill="#171717" stroke="#D6F84C" stroke-width="2"></path>
<g clip-path="url(#clip0_2933_157)">
<path d="M581.192 175.184L581.159 175.315C577.498 189.642 562.893 198.35 548.465 194.767C534.001 191.174 525.202 176.579 528.809 162.176L528.809 162.176C532.413 147.769 547.063 138.996 561.529 142.589L561.529 142.589C575.998 146.182 584.797 160.779 581.192 175.184Z" fill="#161616" stroke="#D6F84C" stroke-width="2"></path>
<path d="M562.939 157.825C561.241 154.477 557.772 154.496 553.839 155.661L551.949 150.834L549.003 151.995L550.844 156.694C550.069 156.999 549.284 157.326 548.503 157.651L546.651 152.92L543.707 154.079L545.595 158.905C544.963 159.169 544.341 159.427 543.73 159.668L543.724 159.653L539.66 161.251L540.889 164.389C540.889 164.389 543.049 163.491 543.028 163.545C544.221 163.076 544.881 163.614 545.227 164.165L547.38 169.664C547.463 169.632 547.571 169.593 547.7 169.562C547.601 169.601 547.497 169.642 547.389 169.685L550.404 177.389C550.498 177.784 550.511 178.468 549.678 178.798C549.729 178.816 547.537 179.64 547.537 179.64L549.012 183.125L552.159 181.87C552.873 181.59 553.579 181.326 554.27 181.059L556.183 185.94L559.126 184.782L557.235 179.952C558.049 179.65 558.834 179.349 559.597 179.048L561.478 183.856L564.424 182.696L562.517 177.823C567.359 175.589 570.338 172.981 568.952 168.173C567.838 164.301 565.423 163.328 562.348 163.761C563.717 162.221 564.187 160.273 562.94 157.825L562.939 157.825ZM562.904 169.886C564.334 173.533 557.908 175.584 555.912 176.372L553.38 169.904C555.377 169.118 561.414 166.081 562.904 169.886ZM557.96 161.3C559.259 164.619 553.884 166.288 552.221 166.943L549.924 161.077C551.587 160.422 556.605 157.838 557.96 161.3Z" fill="#D6F84C"></path>
</g>
<circle cx="941.5" cy="213.179" r="9.5" fill="#161616" stroke="#D6F84C" stroke-width="2"></circle>
<path d="M507.582 340.617H510.324L516.52 355.75H516.748L522.943 340.617H525.686V359H523.527V345.111H523.35L517.637 359H515.605L509.893 345.111H509.74V359H507.582V340.617ZM535.258 359.279C531.271 359.279 528.809 356.461 528.809 352.221C528.809 347.98 531.297 345.035 535.055 345.035C537.949 345.035 540.996 346.812 540.996 351.916V352.83H530.992C531.094 355.75 532.795 357.35 535.258 357.35C536.908 357.35 537.949 356.639 538.457 355.775H540.793C540.133 357.857 538.102 359.279 535.258 359.279ZM531.018 350.977H538.787C538.787 348.666 537.314 346.965 535.055 346.965C532.668 346.965 531.145 348.844 531.018 350.977ZM543.84 359V345.213H545.947V347.371H546.125C546.709 345.898 548.029 345.035 549.832 345.035C551.635 345.035 552.854 345.898 553.514 347.371H553.666C554.377 345.949 555.824 345.035 557.805 345.035C560.268 345.035 562.02 346.533 562.02 349.783V359H559.836V349.809C559.836 347.777 558.541 346.99 557.043 346.99C555.113 346.99 554.021 348.285 554.021 350.037V359H551.812V349.58C551.812 348.031 550.695 346.99 549.121 346.99C547.471 346.99 546.023 348.387 546.023 350.393V359H543.84ZM571.312 359.279C567.326 359.279 564.863 356.461 564.863 352.221C564.863 347.98 567.352 345.035 571.109 345.035C574.004 345.035 577.051 346.812 577.051 351.916V352.83H567.047C567.148 355.75 568.85 357.35 571.312 357.35C572.963 357.35 574.004 356.639 574.512 355.775H576.848C576.188 357.857 574.156 359.279 571.312 359.279ZM567.072 350.977H574.842C574.842 348.666 573.369 346.965 571.109 346.965C568.723 346.965 567.199 348.844 567.072 350.977ZM590.203 345.238C590 343.436 588.35 342.395 586.141 342.395C583.703 342.395 582.104 343.664 582.104 345.416C582.104 347.346 584.262 348.057 585.658 348.412L587.486 348.92C589.467 349.428 592.691 350.57 592.691 353.998C592.691 356.994 590.279 359.33 586.014 359.33C582.053 359.33 579.59 357.273 579.387 354.227H581.723C581.926 356.283 583.83 357.248 586.014 357.248C588.553 357.248 590.457 355.953 590.457 353.947C590.457 352.17 588.756 351.484 586.826 350.926L584.566 350.316C581.672 349.479 579.895 348.006 579.895 345.518C579.895 342.42 582.662 340.363 586.217 340.363C589.771 340.363 592.336 342.445 592.438 345.238H590.203ZM595.688 364.18V345.213H597.795V347.396H598.049C598.506 346.66 599.369 345.035 602.035 345.035C605.488 345.035 607.9 347.777 607.9 352.145C607.9 356.512 605.488 359.279 602.061 359.279C599.42 359.279 598.506 357.654 598.049 356.893H597.871V364.18H595.688ZM597.82 352.094C597.82 355.191 599.217 357.324 601.756 357.324C604.371 357.324 605.717 355.039 605.717 352.094C605.717 349.225 604.396 346.99 601.756 346.99C599.166 346.99 597.82 349.047 597.82 352.094ZM612.928 350.723V359H610.744V340.617H612.928V347.371H613.105C613.74 345.949 614.984 345.035 617.168 345.035C619.986 345.035 621.865 346.711 621.865 350.24V359H619.682V350.393C619.682 348.234 618.488 346.99 616.508 346.99C614.451 346.99 612.928 348.336 612.928 350.723ZM631.158 359.279C627.172 359.279 624.709 356.461 624.709 352.221C624.709 347.98 627.197 345.035 630.955 345.035C633.85 345.035 636.896 346.812 636.896 351.916V352.83H626.893C626.994 355.75 628.695 357.35 631.158 357.35C632.809 357.35 633.85 356.639 634.357 355.775H636.693C636.033 357.857 634.002 359.279 631.158 359.279ZM626.918 350.977H634.688C634.688 348.666 633.215 346.965 630.955 346.965C628.568 346.965 627.045 348.844 626.918 350.977ZM639.74 359V345.213H641.848V347.32H642C642.508 345.924 643.93 344.984 645.555 344.984C645.885 344.984 646.443 345.01 646.697 345.035V347.244C646.545 347.193 645.936 347.092 645.377 347.092C643.396 347.092 641.924 348.463 641.924 350.316V359H639.74ZM654.162 359.279C650.176 359.279 647.713 356.461 647.713 352.221C647.713 347.98 650.201 345.035 653.959 345.035C656.854 345.035 659.9 346.812 659.9 351.916V352.83H649.896C649.998 355.75 651.699 357.35 654.162 357.35C655.812 357.35 656.854 356.639 657.361 355.775H659.697C659.037 357.857 657.006 359.279 654.162 359.279ZM649.922 350.977H657.691C657.691 348.666 656.219 346.965 653.959 346.965C651.572 346.965 650.049 348.844 649.922 350.977ZM681.254 338.484V361.057H679.324V338.484H681.254ZM676.709 338.967V359.914H674.805V348.945H671.91C671.694 353.338 669.828 356.08 667.035 356.08C664.09 356.08 662.186 353.033 662.186 348.234C662.186 343.436 664.09 340.389 667.035 340.389C669.777 340.389 671.631 343.042 671.885 347.295H674.805V338.967H676.709ZM667.035 342.268C665.207 342.268 664.039 344.553 664.064 348.234C664.039 351.891 665.207 354.201 667.035 354.176C668.863 354.201 670.031 351.891 670.031 348.234C670.031 344.553 668.863 342.268 667.035 342.268ZM692.324 344.553C692.324 348.641 694.939 352.754 698.215 354.252L697.021 355.877C694.457 354.557 692.337 351.853 691.334 348.641C690.331 352.018 688.211 354.912 685.646 356.283L684.352 354.684C687.652 353.059 690.293 348.717 690.293 344.553V340.439H692.324V344.553ZM703.09 338.484V361.107H701.109V347.828H695.752V346.203H701.109V338.484H703.09ZM734.041 356.486V358.162H713.373V356.486H722.666V350.977H715.811V340.389H731.477V350.977H724.621V356.486H734.041ZM717.766 341.988V349.377H729.547V341.988H717.766ZM756.436 349.885V351.51H735.844V349.885H756.436ZM754.074 345.746V347.396H738.459V339.475H753.871V341.1H740.439V345.746H754.074ZM754.252 358.873V360.549H738.51V353.947H740.49V358.873H754.252ZM776.621 339.932V349.732H766.033V339.932H776.621ZM767.988 341.582V348.107H774.666V341.582H767.988ZM783.477 338.51V351.408H781.496V338.51H783.477ZM783.477 352.652V360.752H768.801V352.652H783.477ZM770.756 354.252V359.127H781.521V354.252H770.756ZM805.363 340.693V342.877C805.338 345.619 805.363 348.717 804.424 353.312L802.469 353.084C802.913 351.04 803.142 349.25 803.281 347.65L789.469 348.488L789.139 346.736L803.357 346.152C803.408 344.959 803.408 343.88 803.408 342.877V342.344H789.799V340.693H805.363ZM807.877 356.283V357.984H787.311V356.283H795.385V350.443H797.34V356.283H807.877ZM828.418 338.51V355.014H826.438V338.51H828.418ZM829.129 358.898V360.574H813.844V353.338H815.824V358.898H829.129ZM816.23 340.084C819.607 340.084 822.146 342.369 822.146 345.619C822.146 348.92 819.607 351.18 816.23 351.18C812.854 351.18 810.314 348.92 810.314 345.619C810.314 342.369 812.854 340.084 816.23 340.084ZM816.23 341.836C813.945 341.836 812.244 343.41 812.27 345.619C812.244 347.879 813.945 349.428 816.23 349.428C818.465 349.428 820.191 347.879 820.191 345.619C820.191 343.41 818.465 341.836 816.23 341.836ZM842.535 338.891C847.562 338.891 850.508 340.262 850.508 342.775C850.508 345.34 847.562 346.711 842.535 346.736C837.508 346.711 834.537 345.34 834.537 342.775C834.537 340.262 837.508 338.891 842.535 338.891ZM842.535 340.389C838.777 340.389 836.594 341.303 836.619 342.775C836.594 344.35 838.777 345.213 842.535 345.213C846.268 345.213 848.477 344.35 848.477 342.775C848.477 341.303 846.268 340.389 842.535 340.389ZM852.818 348.26V349.885H832.252V348.26H852.818ZM850.178 351.84V356.893H836.771V359.229H850.863V360.803H834.791V355.42H848.223V353.363H834.74V351.84H850.178ZM872.648 340.541V350.926H862.213V340.541H872.648ZM864.168 342.166V349.326H870.719V342.166H864.168ZM878.895 338.484V345.365H882.297V347.041H878.895V355.039H876.914V338.484H878.895ZM879.936 358.898V360.574H864.777V353.465H866.732V358.898H879.936ZM904.844 347.498V349.174H901.188V361.057H899.207V338.484H901.188V347.498H904.844ZM886.639 340.719V353.643C889.939 353.63 893.304 353.376 897.023 352.602L897.277 354.303C893.393 355.09 889.889 355.318 886.461 355.318H884.658V340.719H886.639ZM924.293 340.77V343.029C924.268 345.797 924.268 348.895 923.455 353.439L921.424 353.211C922.287 348.895 922.287 345.721 922.287 343.029V342.42H908.373V340.77H924.293ZM926.756 356.207V357.857H906.189V356.207H914.264V348.133H916.219V356.207H926.756ZM932.367 357.299L930.387 364.205H928.508L929.904 357.299H932.367ZM617.079 389.932V399.732H606.491V389.932H617.079ZM608.446 391.582V398.107H615.124V391.582H608.446ZM623.935 388.51V401.408H621.954V388.51H623.935ZM623.935 402.652V410.752H609.259V402.652H623.935ZM611.214 404.252V409.127H621.979V404.252H611.214ZM645.821 390.693V392.877C645.796 395.619 645.821 398.717 644.882 403.312L642.927 403.084C643.371 401.04 643.6 399.25 643.739 397.65L629.927 398.488L629.597 396.736L643.815 396.152C643.866 394.959 643.866 393.88 643.866 392.877V392.344H630.257V390.693H645.821ZM648.335 406.283V407.984H627.769V406.283H635.843V400.443H637.798V406.283H648.335ZM668.876 388.51V405.014H666.896V388.51H668.876ZM669.587 408.898V410.574H654.302V403.338H656.282V408.898H669.587ZM656.688 390.084C660.065 390.084 662.604 392.369 662.604 395.619C662.604 398.92 660.065 401.18 656.688 401.18C653.312 401.18 650.772 398.92 650.772 395.619C650.772 392.369 653.312 390.084 656.688 390.084ZM656.688 391.836C654.403 391.836 652.702 393.41 652.728 395.619C652.702 397.879 654.403 399.428 656.688 399.428C658.923 399.428 660.649 397.879 660.649 395.619C660.649 393.41 658.923 391.836 656.688 391.836ZM682.993 389.957C687.716 389.957 691.245 392.42 691.245 396.152C691.245 399.91 687.716 402.373 682.993 402.348C678.271 402.373 674.741 399.91 674.741 396.152C674.741 392.42 678.271 389.957 682.993 389.957ZM682.993 391.582C679.362 391.557 676.62 393.461 676.646 396.152C676.62 398.895 679.362 400.723 682.993 400.723C686.599 400.723 689.315 398.895 689.315 396.152C689.315 393.461 686.599 391.557 682.993 391.582ZM693.378 406.385V408.061H672.71V406.385H693.378ZM715.849 406.588V408.264H695.181V406.588H704.474V402.322H697.771V395.365H711.278V391.811H697.72V390.16H713.233V396.99H699.751V400.672H713.767V402.322H706.429V406.588H715.849ZM744.845 406.461V408.111H724.177V406.461H733.419V400.926H735.374V406.461H744.845ZM735.425 391.76C735.425 395.543 739.894 398.844 743.829 399.529L742.94 401.18C739.5 400.481 735.869 398.146 734.409 394.883C732.924 398.133 729.318 400.481 725.878 401.18L724.989 399.529C728.925 398.844 733.343 395.543 733.343 391.76V390.033H735.425V391.76ZM767.214 400.469V402.094H746.622V400.469H755.915V398.234H749.364V389.145H764.649V390.77H751.37V392.877H764.04V394.4H751.37V396.635H764.776V398.234H757.896V400.469H767.214ZM756.931 403.795C761.882 403.77 764.675 405.039 764.7 407.4C764.675 409.762 761.882 411.006 756.931 411.006C751.929 411.006 749.136 409.762 749.136 407.4C749.136 405.039 751.929 403.77 756.931 403.795ZM756.931 405.293C753.198 405.293 751.116 406.055 751.142 407.4C751.116 408.771 753.198 409.482 756.931 409.457C760.612 409.482 762.694 408.771 762.694 407.4C762.694 406.055 760.612 405.293 756.931 405.293ZM786.587 388.484V397.803H790.37V399.453H786.587V411.057H784.606V388.484H786.587ZM782.423 392.115V393.766H768.991V392.115H774.806V388.764H776.786V392.115H782.423ZM775.821 395.645C779.021 395.645 781.331 397.777 781.356 400.824C781.331 403.871 779.021 406.004 775.821 406.004C772.597 406.004 770.261 403.871 770.286 400.824C770.261 397.777 772.597 395.645 775.821 395.645ZM775.821 397.32C773.714 397.32 772.165 398.793 772.19 400.824C772.165 402.881 773.714 404.328 775.821 404.303C777.903 404.328 779.427 402.881 779.452 400.824C779.427 398.793 777.903 397.32 775.821 397.32ZM798.292 394.908C798.292 398.488 800.044 402.373 803.04 404.15L801.897 405.699C799.727 404.379 798.165 401.967 797.378 399.225C796.54 402.221 794.864 404.798 792.604 406.182L791.335 404.684C794.458 402.855 796.362 398.844 796.362 394.984V390.617H798.292V394.908ZM810.937 388.484V411.057H809.007V388.484H810.937ZM806.265 388.967V409.914H804.386V398.285H800.552V396.584H804.386V388.967H806.265ZM834.728 406.486V408.162H814.06V406.486H819.188V400.393C817.259 399.39 816.091 397.765 816.091 395.721C816.091 392.217 819.519 389.932 824.343 389.906C829.167 389.932 832.595 392.217 832.595 395.721C832.595 397.727 831.465 399.339 829.599 400.342V406.486H834.728ZM824.343 391.557C820.636 391.531 818.021 393.207 818.021 395.721C818.021 398.234 820.636 399.936 824.343 399.936C828.024 399.936 830.665 398.234 830.665 395.721C830.665 393.207 828.024 391.531 824.343 391.557ZM821.144 406.486H827.593V401.104C826.615 401.37 825.523 401.51 824.343 401.51C823.188 401.51 822.108 401.383 821.144 401.129V406.486Z" fill="white"></path>
</g>
<defs>
<filter id="filter0_d_2933_157" x="0" y="0" width="1448" height="773" filterUnits="userSpaceOnUse" color-interpolation-filters="sRGB">
<feFlood flood-opacity="0" result="BackgroundImageFix"></feFlood>
<feColorMatrix in="SourceAlpha" type="matrix" values="0 0 0 0 0 0 0 0 0 0 0 0 0 0 0 0 0 0 127 0" result="hardAlpha"></feColorMatrix>
<feOffset dy="4"></feOffset>
<feGaussianBlur stdDeviation="2"></feGaussianBlur>
<feComposite in2="hardAlpha" operator="out"></feComposite>
<feColorMatrix type="matrix" values="0 0 0 0 0 0 0 0 0 0 0 0 0 0 0 0 0 0 0.25 0"></feColorMatrix>
<feBlend mode="normal" in2="BackgroundImageFix" result="effect1_dropShadow_2933_157"></feBlend>
<feBlend mode="normal" in="SourceGraphic" in2="effect1_dropShadow_2933_157" result="shape"></feBlend>
</filter>
<linearGradient id="paint0_linear_2933_157" x1="724" y1="277" x2="724" y2="765" gradientUnits="userSpaceOnUse">
<stop stop-color="#161616" stop-opacity="0"></stop>
<stop offset="0.255" stop-color="#161616"></stop>
</linearGradient>
<clipPath id="clip0_2933_157">
<rect width="56" height="56" fill="white" transform="translate(527 140.679)"></rect>
</clipPath>
</defs>
</svg>