<svg width="1440" height="959" viewBox="0 0 1440 959" fill="none" xmlns="http://www.w3.org/2000/svg">
<rect width="1440" height="959" fill="#161616"/>
<path d="M584.82 42.9316V52.7324H574.232V42.9316H584.82ZM576.188 44.582V51.1074H582.865V44.582H576.188ZM591.676 41.5098V54.4082H589.695V41.5098H591.676ZM591.676 55.6523V63.752H577V55.6523H591.676ZM578.955 57.252V62.127H589.721V57.252H578.955ZM613.562 43.6934V45.877C613.537 48.6191 613.562 51.7168 612.623 56.3125L610.668 56.084C611.112 54.04 611.341 52.25 611.48 50.6504L597.668 51.4883L597.338 49.7363L611.557 49.1523C611.607 47.959 611.607 46.8799 611.607 45.877V45.3438H597.998V43.6934H613.562ZM616.076 59.2832V60.9844H595.51V59.2832H603.584V53.4434H605.539V59.2832H616.076ZM636.617 41.5098V58.0137H634.637V41.5098H636.617ZM637.328 61.8984V63.5742H622.043V56.3379H624.023V61.8984H637.328ZM624.43 43.084C627.807 43.084 630.346 45.3691 630.346 48.6191C630.346 51.9199 627.807 54.1797 624.43 54.1797C621.053 54.1797 618.514 51.9199 618.514 48.6191C618.514 45.3691 621.053 43.084 624.43 43.084ZM624.43 44.8359C622.145 44.8359 620.443 46.4102 620.469 48.6191C620.443 50.8789 622.145 52.4277 624.43 52.4277C626.664 52.4277 628.391 50.8789 628.391 48.6191C628.391 46.4102 626.664 44.8359 624.43 44.8359ZM650.734 41.8906C655.762 41.8906 658.707 43.2617 658.707 45.7754C658.707 48.3398 655.762 49.7109 650.734 49.7363C645.707 49.7109 642.736 48.3398 642.736 45.7754C642.736 43.2617 645.707 41.8906 650.734 41.8906ZM650.734 43.3887C646.977 43.3887 644.793 44.3027 644.818 45.7754C644.793 47.3496 646.977 48.2129 650.734 48.2129C654.467 48.2129 656.676 47.3496 656.676 45.7754C656.676 44.3027 654.467 43.3887 650.734 43.3887ZM661.018 51.2598V52.8848H640.451V51.2598H661.018ZM658.377 54.8398V59.8926H644.971V62.2285H659.062V63.8027H642.99V58.4199H656.422V56.3633H642.939V54.8398H658.377ZM690.014 53.5195V55.1699H669.447V53.5195H678.74V51.1582C674.411 50.9424 671.732 49.3047 671.732 46.6387C671.732 43.8711 674.83 42.1699 679.73 42.1699C684.58 42.1699 687.703 43.8711 687.703 46.6387C687.703 49.3047 684.999 50.9424 680.721 51.1582V53.5195H690.014ZM687.729 61.8984V63.5742H672.113V56.998H674.119V61.8984H687.729ZM679.73 43.7949C676.1 43.7949 673.764 44.9121 673.789 46.6387C673.764 48.4668 676.1 49.5332 679.73 49.5332C683.336 49.5332 685.672 48.4668 685.672 46.6387C685.672 44.9121 683.336 43.7949 679.73 43.7949ZM710.631 41.5098V58.0645H708.625V49.4062H703.979V47.7559H708.625V41.5098H710.631ZM711.266 61.8984V63.5742H696.133V56.5664H698.139V61.8984H711.266ZM699.764 46.1562C699.764 49.0762 702.023 51.9199 705.324 53.0371L704.283 54.6367C701.731 53.7227 699.764 51.8184 698.799 49.4824C697.821 52.085 695.739 54.167 693.061 55.1699L692.02 53.5449C695.346 52.377 697.758 49.4062 697.758 46.1562V44.9883H692.654V43.3379H704.816V44.9883H699.764V46.1562ZM733 41.4844V64.0566H730.994V41.4844H733ZM728.557 45.166V46.791H714.896V45.166H720.711V41.7129H722.717V45.166H728.557ZM721.777 48.6445C725.027 48.6445 727.363 50.7773 727.363 53.8242C727.363 56.8711 725.027 59.0039 721.777 59.0039C718.502 59.0039 716.141 56.8711 716.166 53.8242C716.141 50.7773 718.502 48.6445 721.777 48.6445ZM721.777 50.3203C719.619 50.3203 718.045 51.793 718.045 53.8242C718.045 55.8809 719.619 57.3281 721.777 57.3027C723.91 57.3281 725.459 55.8809 725.459 53.8242C725.459 51.793 723.91 50.3203 721.777 50.3203ZM763.951 51.1074V52.7578H743.385V51.1074H763.951ZM761.311 54.8398V59.9434H747.904V62.2285H761.996V63.8027H745.924V58.4453H759.355V56.3633H745.873V54.8398H761.311ZM762.123 42.373V43.998H754.836C755.039 46.3213 758.848 48.0986 762.859 48.416L762.199 49.9902C758.505 49.6094 755.026 48.1748 753.693 45.9023C752.322 48.1748 748.856 49.6094 745.162 49.9902L744.502 48.416C748.488 48.0986 752.284 46.3213 752.551 43.998H745.264V42.373H762.123ZM784.492 41.4844V53.0371H782.512V41.4844H784.492ZM777.738 42.6016C777.738 48.3652 773.65 51.9707 766.973 53.5195L766.236 51.8438C771.886 50.5869 775.199 47.8828 775.555 44.252H767.379V42.6016H777.738ZM784.492 54.1035V59.5625H771.848V62.2539H785.305V63.8535H769.867V58.0391H782.512V55.7031H769.816V54.1035H784.492ZM806.176 43.5918C806.176 46.7656 810.34 49.5332 814.402 50.0918L813.59 51.7168C810.086 51.1328 806.62 49.1904 805.16 46.4102C803.713 49.2031 800.234 51.1328 796.73 51.7168L795.918 50.0918C799.98 49.5332 804.119 46.8164 804.119 43.5918V42.2969H806.176V43.5918ZM815.418 54.2051V55.8809H806.074V64.0566H804.119V55.8809H794.852V54.2051H815.418ZM831.49 56.6426C831.49 58.6357 832.557 60.7559 834.715 61.9746C836.848 60.6416 837.99 58.3945 837.99 56.6426V55.3984H839.945V56.6426C839.945 58.9531 841.646 61.2891 844.541 62.2793L843.551 63.752C841.291 62.9521 839.704 61.3779 838.93 59.4863C838.231 61.3145 836.848 63.041 834.766 63.9297C832.569 63.0918 831.173 61.4287 830.5 59.5371C829.7 61.3652 828.139 62.9395 825.98 63.752L824.965 62.2793C827.809 61.2129 829.535 58.8008 829.561 56.6426V55.3984H831.49V56.6426ZM842.484 41.5098V54.4082H840.504V41.5098H842.484ZM830.297 42.8301C833.725 42.8301 836.213 44.9629 836.213 48.1113C836.213 51.209 833.725 53.3418 830.297 53.3418C826.869 53.3418 824.381 51.209 824.381 48.1113C824.381 44.9629 826.869 42.8301 830.297 42.8301ZM830.297 44.5312C827.986 44.5059 826.311 46.0039 826.336 48.1113C826.311 50.1934 827.986 51.666 830.297 51.6914C832.582 51.666 834.258 50.1934 834.258 48.1113C834.258 46.0039 832.582 44.5059 830.297 44.5312ZM864.574 48.3398V49.9395H849.111V42.3223H851.092V48.3398H864.574ZM866.961 53.0117V54.6367H846.293V53.0117H866.961ZM864.701 61.8477V63.498H848.984V56.9473H850.965V61.8477H864.701Z" fill="white"/>
<rect x="213" y="148" width="1014" height="705" rx="281" stroke="url(#paint0_linear_3119_16591)" stroke-width="2"/>
<rect x="1142.5" y="306" width="170" height="71" rx="35.5" fill="#161616"/>
<rect x="1142.5" y="306" width="170" height="71" rx="35.5" stroke="#46D293" stroke-width="2"/>
<path d="M1182.55 331.203H1198.76V334.594H1192.69V351H1188.63V334.594H1182.55V331.203ZM1201.33 331.203H1209.07C1210.57 331.203 1211.84 331.467 1212.9 331.996C1213.96 332.516 1214.78 333.263 1215.33 334.238C1215.89 335.214 1216.17 336.353 1216.17 337.656C1216.17 338.951 1215.88 340.076 1215.32 341.033C1214.76 341.981 1213.94 342.71 1212.86 343.221C1211.77 343.722 1210.48 343.973 1208.97 343.973H1203.74V340.623H1208.33C1209.15 340.623 1209.83 340.514 1210.36 340.295C1210.88 340.067 1211.28 339.734 1211.54 339.297C1211.81 338.859 1211.94 338.312 1211.94 337.656C1211.94 336.982 1211.81 336.417 1211.54 335.961C1211.28 335.505 1210.88 335.163 1210.34 334.936C1209.8 334.699 1209.13 334.58 1208.32 334.58H1205.43V351H1201.33V331.203ZM1216.88 351H1212.31L1207.51 342.004H1211.96L1216.88 351ZM1219.02 331.203H1232.31V334.594H1223.12V339.406H1231.62V342.783H1223.12V347.609H1232.34V351H1219.02V331.203ZM1252.01 351H1248.46L1239.76 338.422H1239.61V351H1235.51V331.203H1239.12L1247.75 343.768H1247.93V331.203H1252.01V351ZM1257.22 351V347.473H1262.19C1263.46 347.473 1264.52 347.245 1265.37 346.789C1266.22 346.333 1266.86 345.636 1267.29 344.697C1267.71 343.749 1267.93 342.546 1267.93 341.088C1267.93 339.63 1267.71 338.431 1267.29 337.492C1266.87 336.544 1266.23 335.847 1265.38 335.4C1264.54 334.954 1263.48 334.73 1262.21 334.73H1257.13V331.203H1262.42C1264.4 331.203 1266.12 331.6 1267.56 332.393C1269.01 333.176 1270.12 334.311 1270.88 335.797C1271.66 337.283 1272.04 339.046 1272.04 341.088C1272.04 343.139 1271.66 344.907 1270.88 346.393C1270.11 347.878 1268.99 349.018 1267.53 349.811C1266.08 350.604 1264.36 351 1262.36 351H1257.22ZM1259.49 351H1255.39V331.203H1259.49V351Z" fill="#46D293"/>
<rect x="450" y="818" width="224" height="71" rx="35.5" fill="#161616"/>
<rect x="450" y="818" width="224" height="71" rx="35.5" stroke="#3DABC1" stroke-width="2"/>
<path d="M490.879 843.203H498.617C500.094 843.203 501.365 843.486 502.432 844.051C503.507 844.607 504.323 845.391 504.879 846.402C505.435 847.414 505.713 848.576 505.713 849.889C505.713 851.21 505.426 852.372 504.852 853.375C504.286 854.368 503.462 855.148 502.377 855.713C501.301 856.269 500.016 856.547 498.521 856.547H493.545V853.238H497.879C498.672 853.238 499.337 853.102 499.875 852.828C500.422 852.546 500.827 852.154 501.092 851.652C501.356 851.151 501.488 850.563 501.488 849.889C501.488 849.214 501.356 848.631 501.092 848.139C500.827 847.637 500.422 847.255 499.875 846.99C499.337 846.717 498.667 846.58 497.865 846.58H494.98V863H490.879V843.203ZM508.324 843.203H521.613V846.594H512.426V851.406H520.916V854.783H512.426V859.609H521.641V863H508.324V843.203ZM524.812 843.203H532.551C534.046 843.203 535.322 843.467 536.379 843.996C537.445 844.516 538.257 845.263 538.812 846.238C539.368 847.214 539.646 848.353 539.646 849.656C539.646 850.951 539.364 852.076 538.799 853.033C538.243 853.981 537.423 854.71 536.338 855.221C535.253 855.722 533.959 855.973 532.455 855.973H527.219V852.623H531.812C532.633 852.623 533.307 852.514 533.836 852.295C534.365 852.067 534.761 851.734 535.025 851.297C535.29 850.859 535.422 850.312 535.422 849.656C535.422 848.982 535.29 848.417 535.025 847.961C534.761 847.505 534.36 847.163 533.822 846.936C533.285 846.699 532.61 846.58 531.799 846.58H528.914V863H524.812V843.203ZM540.357 863H535.791L530.992 854.004H535.436L540.357 863ZM553.223 848.863C553.168 848.335 552.999 847.883 552.717 847.51C552.443 847.136 552.061 846.854 551.568 846.662C551.076 846.471 550.488 846.375 549.805 846.375C549.139 846.375 548.561 846.471 548.068 846.662C547.585 846.854 547.216 847.122 546.961 847.469C546.706 847.806 546.578 848.193 546.578 848.631C546.569 849.296 546.842 849.816 547.398 850.189C547.964 850.563 548.743 850.873 549.736 851.119L551.514 851.543C553.391 851.962 554.845 852.641 555.875 853.58C556.914 854.51 557.438 855.768 557.447 857.354C557.447 858.548 557.142 859.591 556.531 860.484C555.921 861.378 555.041 862.066 553.893 862.549C552.744 863.032 551.372 863.273 549.777 863.273C548.182 863.273 546.792 863.027 545.607 862.535C544.432 862.043 543.52 861.318 542.873 860.361C542.226 859.395 541.88 858.215 541.834 856.82H545.826C545.881 857.467 546.077 858.014 546.414 858.461C546.751 858.908 547.207 859.245 547.781 859.473C548.355 859.701 549.007 859.814 549.736 859.814C550.447 859.814 551.072 859.71 551.609 859.5C552.147 859.29 552.562 858.999 552.854 858.625C553.145 858.242 553.291 857.809 553.291 857.326C553.291 856.889 553.163 856.52 552.908 856.219C552.653 855.909 552.279 855.649 551.787 855.439C551.304 855.221 550.68 855.016 549.914 854.824L547.74 854.305C546.008 853.876 544.678 853.225 543.748 852.35C542.827 851.465 542.367 850.317 542.367 848.904C542.367 847.729 542.686 846.689 543.324 845.787C543.971 844.885 544.86 844.183 545.99 843.682C547.13 843.18 548.415 842.93 549.846 842.93C551.286 842.93 552.557 843.18 553.66 843.682C554.763 844.174 555.62 844.871 556.23 845.773C556.841 846.667 557.156 847.697 557.174 848.863H553.223ZM578.242 853.102C578.242 855.198 577.841 857.016 577.039 858.557C576.246 860.088 575.148 861.259 573.744 862.07C572.35 862.872 570.768 863.273 569 863.273C567.232 863.273 565.646 862.872 564.242 862.07C562.848 861.259 561.749 860.083 560.947 858.543C560.154 857.003 559.758 855.189 559.758 853.102C559.758 850.987 560.154 849.164 560.947 847.633C561.749 846.102 562.848 844.935 564.242 844.133C565.646 843.331 567.232 842.93 569 842.93C570.768 842.93 572.35 843.331 573.744 844.133C575.148 844.935 576.246 846.102 577.039 847.633C577.841 849.164 578.242 850.987 578.242 853.102ZM574.086 853.102C574.086 851.707 573.876 850.522 573.457 849.547C573.047 848.572 572.459 847.833 571.693 847.332C570.937 846.822 570.039 846.566 569 846.566C567.97 846.566 567.072 846.822 566.307 847.332C565.55 847.833 564.962 848.572 564.543 849.547C564.124 850.522 563.914 851.707 563.914 853.102C563.914 854.496 564.124 855.681 564.543 856.656C564.962 857.632 565.55 858.374 566.307 858.885C567.072 859.386 567.97 859.637 569 859.637C570.039 859.637 570.937 859.386 571.693 858.885C572.459 858.374 573.047 857.632 573.457 856.656C573.876 855.681 574.086 854.496 574.086 853.102ZM597.725 863H594.17L585.475 850.422H585.324V863H581.223V843.203H584.832L593.459 855.768H593.637V843.203H597.725V863ZM599.994 863L606.83 843.203H612.107L618.957 863H614.541L609.551 847.674H609.387L604.383 863H599.994ZM614.732 855.221V858.434H604.164V855.221H614.732ZM621.199 843.203H625.301V859.609H633.818V863H621.199V843.203Z" fill="#3DABC1"/>
<path fill-rule="evenodd" clip-rule="evenodd" d="M620.5 94C600.342 94 584 110.342 584 130.5C584 150.658 600.342 167 620.5 167H666.994C672.603 179.944 685.494 189 700.5 189H802.5C822.658 189 839 172.658 839 152.5C839 132.342 822.658 116 802.5 116H743.006C737.397 103.056 724.506 94 709.5 94H620.5Z" fill="url(#paint1_linear_3119_16591)"/>
<path d="M716.883 147.863C716.828 147.335 716.66 146.883 716.377 146.51C716.104 146.136 715.721 145.854 715.229 145.662C714.736 145.471 714.148 145.375 713.465 145.375C712.799 145.375 712.221 145.471 711.729 145.662C711.245 145.854 710.876 146.122 710.621 146.469C710.366 146.806 710.238 147.193 710.238 147.631C710.229 148.296 710.503 148.816 711.059 149.189C711.624 149.563 712.403 149.873 713.396 150.119L715.174 150.543C717.051 150.962 718.505 151.641 719.535 152.58C720.574 153.51 721.098 154.768 721.107 156.354C721.107 157.548 720.802 158.591 720.191 159.484C719.581 160.378 718.701 161.066 717.553 161.549C716.404 162.032 715.033 162.273 713.438 162.273C711.842 162.273 710.452 162.027 709.268 161.535C708.092 161.043 707.18 160.318 706.533 159.361C705.886 158.395 705.54 157.215 705.494 155.82H709.486C709.541 156.467 709.737 157.014 710.074 157.461C710.411 157.908 710.867 158.245 711.441 158.473C712.016 158.701 712.667 158.814 713.396 158.814C714.107 158.814 714.732 158.71 715.27 158.5C715.807 158.29 716.222 157.999 716.514 157.625C716.805 157.242 716.951 156.809 716.951 156.326C716.951 155.889 716.824 155.52 716.568 155.219C716.313 154.909 715.939 154.649 715.447 154.439C714.964 154.221 714.34 154.016 713.574 153.824L711.4 153.305C709.669 152.876 708.338 152.225 707.408 151.35C706.488 150.465 706.027 149.317 706.027 147.904C706.027 146.729 706.346 145.689 706.984 144.787C707.632 143.885 708.52 143.183 709.65 142.682C710.79 142.18 712.075 141.93 713.506 141.93C714.946 141.93 716.217 142.18 717.32 142.682C718.423 143.174 719.28 143.871 719.891 144.773C720.501 145.667 720.816 146.697 720.834 147.863H716.883ZM723.705 147.152H727.684V149.641H727.875L727.957 149.477C728.194 149.012 728.486 148.597 728.832 148.232C729.178 147.859 729.625 147.553 730.172 147.316C730.719 147.079 731.361 146.961 732.1 146.961C733.221 146.961 734.237 147.248 735.148 147.822C736.06 148.396 736.78 149.258 737.309 150.406C737.846 151.555 738.115 152.949 738.115 154.59C738.115 156.194 737.855 157.575 737.336 158.732C736.816 159.881 736.101 160.751 735.189 161.344C734.278 161.936 733.243 162.232 732.086 162.232C731.357 162.232 730.71 162.109 730.145 161.863C729.589 161.617 729.137 161.316 728.791 160.961C728.445 160.605 728.148 160.191 727.902 159.717L727.875 159.635H727.752V167.578H723.705V147.152ZM727.643 154.562C727.643 155.447 727.77 156.226 728.025 156.9C728.281 157.575 728.645 158.094 729.119 158.459C729.593 158.824 730.167 159.006 730.842 159.006C731.507 159.006 732.077 158.819 732.551 158.445C733.034 158.072 733.394 157.552 733.631 156.887C733.877 156.212 734 155.438 734 154.562C734 153.688 733.877 152.922 733.631 152.266C733.394 151.609 733.038 151.104 732.564 150.748C732.09 150.383 731.516 150.201 730.842 150.201C730.167 150.201 729.593 150.379 729.119 150.734C728.645 151.081 728.281 151.582 728.025 152.238C727.77 152.895 727.643 153.669 727.643 154.562ZM744.76 162H740.713V142.203H744.65V149.75H744.814C745.17 148.866 745.721 148.182 746.469 147.699C747.225 147.207 748.15 146.961 749.244 146.961C750.283 146.961 751.19 147.184 751.965 147.631C752.74 148.077 753.337 148.72 753.756 149.559C754.175 150.397 754.385 151.391 754.385 152.539V162H750.338V153.236C750.338 152.626 750.233 152.102 750.023 151.664C749.814 151.227 749.508 150.894 749.107 150.666C748.706 150.438 748.223 150.324 747.658 150.324C747.084 150.324 746.583 150.447 746.154 150.693C745.726 150.93 745.384 151.281 745.129 151.746C744.883 152.211 744.76 152.762 744.76 153.4V162ZM764.27 162.287C762.775 162.287 761.471 161.977 760.359 161.357C759.257 160.738 758.404 159.854 757.803 158.705C757.21 157.557 756.914 156.208 756.914 154.658C756.914 153.127 757.21 151.783 757.803 150.625C758.404 149.458 759.247 148.556 760.332 147.918C761.417 147.28 762.674 146.961 764.105 146.961C765.445 146.961 766.639 147.243 767.688 147.809C768.736 148.365 769.561 149.208 770.162 150.338C770.764 151.468 771.064 152.849 771.064 154.48V155.615H758.568V153.086H767.25C767.25 152.484 767.118 151.951 766.854 151.486C766.589 151.012 766.225 150.643 765.76 150.379C765.295 150.115 764.766 149.982 764.174 149.982C763.545 149.982 762.984 150.128 762.492 150.42C762 150.702 761.613 151.094 761.33 151.596C761.057 152.097 760.915 152.644 760.906 153.236V155.615C760.906 156.354 761.048 157.001 761.33 157.557C761.613 158.113 762.009 158.536 762.52 158.828C763.039 159.12 763.641 159.266 764.324 159.266C764.78 159.266 765.195 159.202 765.568 159.074C765.942 158.938 766.257 158.764 766.512 158.555C766.776 158.336 766.977 158.081 767.113 157.789H770.969C770.777 158.691 770.381 159.484 769.779 160.168C769.187 160.842 768.417 161.367 767.469 161.74C766.53 162.105 765.464 162.287 764.27 162.287ZM773.607 147.152H777.518V149.736H777.682C777.946 148.825 778.397 148.132 779.035 147.658C779.673 147.175 780.411 146.934 781.25 146.934C781.688 146.934 782.12 146.979 782.549 147.07V150.68C782.376 150.616 782.116 150.566 781.77 150.529C781.423 150.484 781.104 150.461 780.812 150.461C780.211 150.461 779.673 150.593 779.199 150.857C778.725 151.113 778.347 151.477 778.064 151.951C777.791 152.416 777.654 152.954 777.654 153.564V162H773.607V147.152ZM790.766 162.287C789.271 162.287 787.967 161.977 786.855 161.357C785.753 160.738 784.9 159.854 784.299 158.705C783.706 157.557 783.41 156.208 783.41 154.658C783.41 153.127 783.706 151.783 784.299 150.625C784.9 149.458 785.743 148.556 786.828 147.918C787.913 147.28 789.171 146.961 790.602 146.961C791.941 146.961 793.135 147.243 794.184 147.809C795.232 148.365 796.057 149.208 796.658 150.338C797.26 151.468 797.561 152.849 797.561 154.48V155.615H785.064V153.086H793.746C793.746 152.484 793.614 151.951 793.35 151.486C793.085 151.012 792.721 150.643 792.256 150.379C791.791 150.115 791.262 149.982 790.67 149.982C790.041 149.982 789.48 150.128 788.988 150.42C788.496 150.702 788.109 151.094 787.826 151.596C787.553 152.097 787.411 152.644 787.402 153.236V155.615C787.402 156.354 787.544 157.001 787.826 157.557C788.109 158.113 788.505 158.536 789.016 158.828C789.535 159.12 790.137 159.266 790.82 159.266C791.276 159.266 791.691 159.202 792.064 159.074C792.438 158.938 792.753 158.764 793.008 158.555C793.272 158.336 793.473 158.081 793.609 157.789H797.465C797.273 158.691 796.877 159.484 796.275 160.168C795.683 160.842 794.913 161.367 793.965 161.74C793.026 162.105 791.96 162.287 790.766 162.287Z" fill="white"/>
<path d="M630.998 121.203L636.508 134.615H636.74L642.236 121.203H647.309V141H643.316V128.025H643.152L637.984 140.904H635.236L630.082 127.998H629.918V141H625.939V121.203H630.998ZM657.303 141.287C655.808 141.287 654.505 140.977 653.393 140.357C652.29 139.738 651.438 138.854 650.836 137.705C650.243 136.557 649.947 135.208 649.947 133.658C649.947 132.127 650.243 130.783 650.836 129.625C651.438 128.458 652.281 127.556 653.365 126.918C654.45 126.28 655.708 125.961 657.139 125.961C658.479 125.961 659.673 126.243 660.721 126.809C661.769 127.365 662.594 128.208 663.195 129.338C663.797 130.468 664.098 131.849 664.098 133.48V134.615H651.602V132.086H660.283C660.283 131.484 660.151 130.951 659.887 130.486C659.622 130.012 659.258 129.643 658.793 129.379C658.328 129.115 657.799 128.982 657.207 128.982C656.578 128.982 656.018 129.128 655.525 129.42C655.033 129.702 654.646 130.094 654.363 130.596C654.09 131.097 653.949 131.644 653.939 132.236V134.615C653.939 135.354 654.081 136.001 654.363 136.557C654.646 137.113 655.042 137.536 655.553 137.828C656.072 138.12 656.674 138.266 657.357 138.266C657.813 138.266 658.228 138.202 658.602 138.074C658.975 137.938 659.29 137.764 659.545 137.555C659.809 137.336 660.01 137.081 660.146 136.789H664.002C663.811 137.691 663.414 138.484 662.812 139.168C662.22 139.842 661.45 140.367 660.502 140.74C659.563 141.105 658.497 141.287 657.303 141.287ZM666.641 126.152H670.496V128.75H670.66C670.988 127.866 671.512 127.182 672.232 126.699C672.952 126.207 673.809 125.961 674.803 125.961C675.468 125.961 676.074 126.075 676.621 126.303C677.177 126.521 677.642 126.84 678.016 127.26C678.389 127.679 678.663 128.176 678.836 128.75H678.973C679.191 128.185 679.515 127.693 679.943 127.273C680.372 126.854 680.887 126.531 681.488 126.303C682.09 126.075 682.746 125.961 683.457 125.961C684.387 125.961 685.202 126.161 685.904 126.562C686.615 126.954 687.167 127.533 687.559 128.299C687.951 129.055 688.146 129.967 688.146 131.033V141H684.086V131.799C684.086 130.988 683.872 130.372 683.443 129.953C683.015 129.525 682.454 129.311 681.762 129.311C681.26 129.311 680.827 129.42 680.463 129.639C680.107 129.848 679.829 130.149 679.629 130.541C679.438 130.924 679.342 131.38 679.342 131.908V141H675.418V131.689C675.418 131.215 675.322 130.796 675.131 130.432C674.949 130.067 674.684 129.789 674.338 129.598C673.992 129.406 673.59 129.311 673.135 129.311C672.679 129.311 672.264 129.424 671.891 129.652C671.526 129.871 671.234 130.19 671.016 130.609C670.797 131.029 670.688 131.516 670.688 132.072V141H666.641V126.152ZM697.99 141.287C696.495 141.287 695.192 140.977 694.08 140.357C692.977 139.738 692.125 138.854 691.523 137.705C690.931 136.557 690.635 135.208 690.635 133.658C690.635 132.127 690.931 130.783 691.523 129.625C692.125 128.458 692.968 127.556 694.053 126.918C695.137 126.28 696.395 125.961 697.826 125.961C699.166 125.961 700.36 126.243 701.408 126.809C702.456 127.365 703.281 128.208 703.883 129.338C704.484 130.468 704.785 131.849 704.785 133.48V134.615H692.289V132.086H700.971C700.971 131.484 700.839 130.951 700.574 130.486C700.31 130.012 699.945 129.643 699.48 129.379C699.016 129.115 698.487 128.982 697.895 128.982C697.266 128.982 696.705 129.128 696.213 129.42C695.721 129.702 695.333 130.094 695.051 130.596C694.777 131.097 694.636 131.644 694.627 132.236V134.615C694.627 135.354 694.768 136.001 695.051 136.557C695.333 137.113 695.73 137.536 696.24 137.828C696.76 138.12 697.361 138.266 698.045 138.266C698.501 138.266 698.915 138.202 699.289 138.074C699.663 137.938 699.977 137.764 700.232 137.555C700.497 137.336 700.697 137.081 700.834 136.789H704.689C704.498 137.691 704.102 138.484 703.5 139.168C702.908 139.842 702.137 140.367 701.189 140.74C700.251 141.105 699.184 141.287 697.99 141.287Z" fill="white"/>
<g clip-path="url(#clip0_3119_16591)">
<path d="M1149.92 228.674L1149.88 228.847C1145 247.952 1125.52 259.564 1106.29 254.786C1087 249.996 1075.27 230.535 1080.08 211.33L1080.08 211.33C1084.88 192.119 1104.42 180.422 1123.71 185.213L1123.71 185.213C1143 190.004 1154.73 209.466 1149.92 228.674Z" fill="#161616" stroke="#39B2BC" stroke-width="2"/>
<path d="M1131.32 214.748C1132.05 209.843 1128.3 207.206 1123.18 205.447L1124.84 198.803L1120.78 197.795L1119.16 204.265C1118.09 203.999 1117 203.749 1115.91 203.502L1117.54 196.989L1113.48 195.981L1111.82 202.624C1110.93 202.424 1110.07 202.226 1109.22 202.017L1109.23 201.996L1103.63 200.603L1102.55 204.923C1102.55 204.923 1105.56 205.611 1105.5 205.653C1107.14 206.062 1107.44 207.147 1107.39 208.006L1105.5 215.576C1105.61 215.604 1105.76 215.646 1105.92 215.711C1105.78 215.677 1105.64 215.641 1105.49 215.605L1102.83 226.209C1102.63 226.707 1102.12 227.454 1100.97 227.17C1101.01 227.229 1098.02 226.436 1098.02 226.436L1096.94 231.318L1101.29 232.378C1102.27 232.624 1103.24 232.881 1104.18 233.123L1102.5 239.843L1106.56 240.851L1108.22 234.202C1109.33 234.501 1110.41 234.778 1111.46 235.038L1109.8 241.656L1113.86 242.664L1115.54 235.956C1122.47 237.261 1127.67 236.735 1129.86 230.497C1131.63 225.474 1129.78 222.577 1126.13 220.688C1128.79 220.078 1130.79 218.34 1131.32 214.749L1131.32 214.748ZM1122.04 227.707C1120.78 232.73 1112.29 230.015 1109.54 229.334L1111.77 220.43C1114.52 221.115 1123.35 222.469 1122.04 227.707ZM1123.3 214.676C1122.15 219.244 1115.08 216.923 1112.79 216.354L1114.81 208.279C1117.11 208.848 1124.49 209.91 1123.3 214.676Z" fill="#39B2BC"/>
</g>
<rect x="186" y="561" width="72" height="72" rx="36" fill="#161616"/>
<rect x="186" y="561" width="72" height="72" rx="36" stroke="#7062EF" stroke-width="2"/>
<path d="M212.028 616.826C212.386 617.378 211.67 618.024 211.057 617.654C208.804 616.503 207.169 615.027 205.84 613.183C200.981 606.591 202.464 598.062 209.471 592.207C211.619 590.41 213.919 588.751 216.066 586.906C219.493 584.001 220.874 580.359 220.055 576.118C219.952 575.565 220.719 575.196 221.232 575.565C229.312 582.019 230.129 589.995 228.749 598.707C228.646 599.26 229.362 599.629 229.823 599.306C231.664 598.108 232.431 596.449 233.044 592.391C233.147 591.792 234.015 591.653 234.373 592.161C239.897 600.827 239.742 614.289 228.697 618.53C228.136 618.76 227.521 618.207 227.778 617.701C230.232 612.768 229.261 608.48 224.351 604.701C221.793 602.811 219.442 600.875 219.391 597.786C219.391 597.233 218.623 596.957 218.214 597.324C214.737 600.367 214.276 604.193 214.737 608.342C214.789 608.941 213.918 609.263 213.509 608.804C213.1 608.342 212.793 607.882 212.59 607.329C212.386 606.777 211.464 606.73 211.261 607.329C210.187 610.51 209.981 613.644 212.028 616.826L212.028 616.826Z" fill="#7062EF"/>
<circle cx="1067.5" cy="172.5" r="9.5" fill="#161616" stroke="#3FA9C2" stroke-width="2"/>
<rect x="107.5" y="459" width="236" height="71" rx="35.5" fill="#161616"/>
<rect x="107.5" y="459" width="236" height="71" rx="35.5" stroke="#D6F84C" stroke-width="2"/>
<path d="M153.449 484.203L158.959 497.615H159.191L164.688 484.203H169.76V504H165.768V491.025H165.604L160.436 503.904H157.688L152.533 490.998H152.369V504H148.391V484.203H153.449ZM173.109 484.203H186.398V487.594H177.211V492.406H185.701V495.783H177.211V500.609H186.426V504H173.109V484.203ZM194.656 484.203L200.166 497.615H200.398L205.895 484.203H210.967V504H206.975V491.025H206.811L201.643 503.904H198.895L193.74 490.998H193.576V504H189.598V484.203H194.656ZM214.316 484.203H227.605V487.594H218.418V492.406H226.908V495.783H218.418V500.609H227.633V504H214.316V484.203ZM250.506 491.107C250.406 490.378 250.16 489.749 249.768 489.221C249.385 488.683 248.883 488.273 248.264 487.99C247.644 487.708 246.956 487.566 246.199 487.566C245.169 487.566 244.267 487.826 243.492 488.346C242.727 488.856 242.13 489.604 241.701 490.588C241.273 491.563 241.059 492.734 241.059 494.102C241.059 495.505 241.273 496.695 241.701 497.67C242.13 498.636 242.727 499.374 243.492 499.885C244.267 500.386 245.156 500.637 246.158 500.637C246.915 500.637 247.594 500.5 248.195 500.227C248.806 499.953 249.312 499.566 249.713 499.064C250.114 498.554 250.378 497.948 250.506 497.246L254.676 497.287C254.521 498.527 254.074 499.68 253.336 500.746C252.607 501.812 251.622 502.669 250.383 503.316C249.143 503.954 247.717 504.273 246.104 504.273C244.335 504.273 242.754 503.872 241.359 503.07C239.965 502.259 238.871 501.088 238.078 499.557C237.294 498.016 236.902 496.198 236.902 494.102C236.902 491.987 237.299 490.164 238.092 488.633C238.894 487.102 239.988 485.935 241.373 485.133C242.768 484.331 244.344 483.93 246.104 483.93C247.626 483.93 249.002 484.212 250.232 484.777C251.463 485.342 252.461 486.167 253.227 487.252C254.001 488.327 254.484 489.613 254.676 491.107H250.506ZM275.648 494.102C275.648 496.198 275.247 498.016 274.445 499.557C273.652 501.088 272.554 502.259 271.15 503.07C269.756 503.872 268.174 504.273 266.406 504.273C264.638 504.273 263.052 503.872 261.648 503.07C260.254 502.259 259.156 501.083 258.354 499.543C257.561 498.003 257.164 496.189 257.164 494.102C257.164 491.987 257.561 490.164 258.354 488.633C259.156 487.102 260.254 485.935 261.648 485.133C263.052 484.331 264.638 483.93 266.406 483.93C268.174 483.93 269.756 484.331 271.15 485.133C272.554 485.935 273.652 487.102 274.445 488.633C275.247 490.164 275.648 491.987 275.648 494.102ZM271.492 494.102C271.492 492.707 271.283 491.522 270.863 490.547C270.453 489.572 269.865 488.833 269.1 488.332C268.343 487.822 267.445 487.566 266.406 487.566C265.376 487.566 264.479 487.822 263.713 488.332C262.956 488.833 262.368 489.572 261.949 490.547C261.53 491.522 261.32 492.707 261.32 494.102C261.32 495.496 261.53 496.681 261.949 497.656C262.368 498.632 262.956 499.374 263.713 499.885C264.479 500.386 265.376 500.637 266.406 500.637C267.445 500.637 268.343 500.386 269.1 499.885C269.865 499.374 270.453 498.632 270.863 497.656C271.283 496.681 271.492 495.496 271.492 494.102ZM282.73 504H278.629V484.203H282.73V504ZM302.596 504H299.041L290.346 491.422H290.195V504H286.094V484.203H289.703L298.33 496.768H298.508V484.203H302.596V504Z" fill="#D6F84C"/>
<path d="M351 785C351.07 785 351.263 785.034 351.595 785.393C351.924 785.747 352.283 786.308 352.67 787.085C353.441 788.634 354.201 790.785 355.038 793.198C355.086 793.336 355.134 793.475 355.182 793.615C355.968 795.884 356.816 798.33 357.776 800.562C358.79 802.918 359.969 805.132 361.411 806.681C362.4 807.744 363.879 808.739 365.447 809.668C366.505 810.294 367.66 810.922 368.79 811.537C369.342 811.837 369.887 812.133 370.413 812.425C372.049 813.333 373.505 814.2 374.546 815.045C375.647 815.939 376 816.583 376 817C376 817.417 375.647 818.061 374.546 818.955C373.505 819.8 372.049 820.667 370.413 821.575C369.887 821.867 369.342 822.163 368.79 822.463C367.66 823.078 366.505 823.706 365.447 824.332C363.879 825.261 362.4 826.256 361.411 827.319C359.969 828.868 358.79 831.082 357.776 833.438C356.816 835.67 355.968 838.116 355.182 840.385C355.134 840.525 355.086 840.664 355.038 840.802C354.201 843.215 353.441 845.366 352.67 846.915C352.283 847.692 351.924 848.253 351.595 848.607C351.263 848.966 351.07 849 351 849C350.93 849 350.737 848.966 350.405 848.607C350.076 848.253 349.717 847.692 349.33 846.915C348.559 845.366 347.799 843.215 346.962 840.802C346.914 840.664 346.866 840.525 346.818 840.385C346.032 838.116 345.184 835.67 344.224 833.438C343.21 831.082 342.031 828.868 340.589 827.319C339.6 826.256 338.121 825.261 336.553 824.332C335.495 823.706 334.34 823.078 333.21 822.463C332.658 822.163 332.113 821.867 331.587 821.575C329.951 820.667 328.495 819.8 327.454 818.955C326.353 818.061 326 817.417 326 817C326 816.583 326.353 815.939 327.454 815.045C328.495 814.2 329.951 813.333 331.587 812.425C332.113 812.133 332.658 811.837 333.21 811.537C334.34 810.922 335.495 810.294 336.553 809.668C338.121 808.739 339.6 807.744 340.589 806.681C342.031 805.132 343.21 802.918 344.224 800.562C345.184 798.33 346.032 795.884 346.818 793.615C346.866 793.475 346.914 793.336 346.962 793.198C347.799 790.785 348.559 788.634 349.33 787.085C349.717 786.308 350.076 785.747 350.405 785.393C350.737 785.034 350.93 785 351 785Z" fill="#171717" stroke="#5D7EDE" stroke-width="2"/>
<defs>
<linearGradient id="paint0_linear_3119_16591" x1="249.284" y1="383.748" x2="988.209" y2="931.107" gradientUnits="userSpaceOnUse">
<stop offset="0.215" stop-color="#7062EF"/>
<stop offset="0.60347" stop-color="#39B1BE"/>
<stop offset="0.835" stop-color="#4ADD85"/>
</linearGradient>
<linearGradient id="paint1_linear_3119_16591" x1="584" y1="114" x2="839" y2="165" gradientUnits="userSpaceOnUse">
<stop stop-color="#7062EF"/>
<stop offset="1" stop-color="#5C80DC"/>
</linearGradient>
<clipPath id="clip0_3119_16591">
<rect width="74" height="74" fill="white" transform="translate(1078 183)"/>
</clipPath>
</defs>
</svg>
