<svg width="1440" height="959" viewBox="0 0 1440 959" fill="none" xmlns="http://www.w3.org/2000/svg">
<rect width="1440" height="959" fill="#161616"/>
<path d="M584.82 42.9316V52.7324H574.232V42.9316H584.82ZM576.188 44.582V51.1074H582.865V44.582H576.188ZM591.676 41.5098V54.4082H589.695V41.5098H591.676ZM591.676 55.6523V63.752H577V55.6523H591.676ZM578.955 57.252V62.127H589.721V57.252H578.955ZM613.562 43.6934V45.877C613.537 48.6191 613.562 51.7168 612.623 56.3125L610.668 56.084C611.112 54.04 611.341 52.25 611.48 50.6504L597.668 51.4883L597.338 49.7363L611.557 49.1523C611.607 47.959 611.607 46.8799 611.607 45.877V45.3438H597.998V43.6934H613.562ZM616.076 59.2832V60.9844H595.51V59.2832H603.584V53.4434H605.539V59.2832H616.076ZM636.617 41.5098V58.0137H634.637V41.5098H636.617ZM637.328 61.8984V63.5742H622.043V56.3379H624.023V61.8984H637.328ZM624.43 43.084C627.807 43.084 630.346 45.3691 630.346 48.6191C630.346 51.9199 627.807 54.1797 624.43 54.1797C621.053 54.1797 618.514 51.9199 618.514 48.6191C618.514 45.3691 621.053 43.084 624.43 43.084ZM624.43 44.8359C622.145 44.8359 620.443 46.4102 620.469 48.6191C620.443 50.8789 622.145 52.4277 624.43 52.4277C626.664 52.4277 628.391 50.8789 628.391 48.6191C628.391 46.4102 626.664 44.8359 624.43 44.8359ZM650.734 41.8906C655.762 41.8906 658.707 43.2617 658.707 45.7754C658.707 48.3398 655.762 49.7109 650.734 49.7363C645.707 49.7109 642.736 48.3398 642.736 45.7754C642.736 43.2617 645.707 41.8906 650.734 41.8906ZM650.734 43.3887C646.977 43.3887 644.793 44.3027 644.818 45.7754C644.793 47.3496 646.977 48.2129 650.734 48.2129C654.467 48.2129 656.676 47.3496 656.676 45.7754C656.676 44.3027 654.467 43.3887 650.734 43.3887ZM661.018 51.2598V52.8848H640.451V51.2598H661.018ZM658.377 54.8398V59.8926H644.971V62.2285H659.062V63.8027H642.99V58.4199H656.422V56.3633H642.939V54.8398H658.377ZM690.014 53.5195V55.1699H669.447V53.5195H678.74V51.1582C674.411 50.9424 671.732 49.3047 671.732 46.6387C671.732 43.8711 674.83 42.1699 679.73 42.1699C684.58 42.1699 687.703 43.8711 687.703 46.6387C687.703 49.3047 684.999 50.9424 680.721 51.1582V53.5195H690.014ZM687.729 61.8984V63.5742H672.113V56.998H674.119V61.8984H687.729ZM679.73 43.7949C676.1 43.7949 673.764 44.9121 673.789 46.6387C673.764 48.4668 676.1 49.5332 679.73 49.5332C683.336 49.5332 685.672 48.4668 685.672 46.6387C685.672 44.9121 683.336 43.7949 679.73 43.7949ZM710.631 41.5098V58.0645H708.625V49.4062H703.979V47.7559H708.625V41.5098H710.631ZM711.266 61.8984V63.5742H696.133V56.5664H698.139V61.8984H711.266ZM699.764 46.1562C699.764 49.0762 702.023 51.9199 705.324 53.0371L704.283 54.6367C701.731 53.7227 699.764 51.8184 698.799 49.4824C697.821 52.085 695.739 54.167 693.061 55.1699L692.02 53.5449C695.346 52.377 697.758 49.4062 697.758 46.1562V44.9883H692.654V43.3379H704.816V44.9883H699.764V46.1562ZM733 41.4844V64.0566H730.994V41.4844H733ZM728.557 45.166V46.791H714.896V45.166H720.711V41.7129H722.717V45.166H728.557ZM721.777 48.6445C725.027 48.6445 727.363 50.7773 727.363 53.8242C727.363 56.8711 725.027 59.0039 721.777 59.0039C718.502 59.0039 716.141 56.8711 716.166 53.8242C716.141 50.7773 718.502 48.6445 721.777 48.6445ZM721.777 50.3203C719.619 50.3203 718.045 51.793 718.045 53.8242C718.045 55.8809 719.619 57.3281 721.777 57.3027C723.91 57.3281 725.459 55.8809 725.459 53.8242C725.459 51.793 723.91 50.3203 721.777 50.3203ZM763.951 51.1074V52.7578H743.385V51.1074H763.951ZM761.311 54.8398V59.9434H747.904V62.2285H761.996V63.8027H745.924V58.4453H759.355V56.3633H745.873V54.8398H761.311ZM762.123 42.373V43.998H754.836C755.039 46.3213 758.848 48.0986 762.859 48.416L762.199 49.9902C758.505 49.6094 755.026 48.1748 753.693 45.9023C752.322 48.1748 748.856 49.6094 745.162 49.9902L744.502 48.416C748.488 48.0986 752.284 46.3213 752.551 43.998H745.264V42.373H762.123ZM784.492 41.4844V53.0371H782.512V41.4844H784.492ZM777.738 42.6016C777.738 48.3652 773.65 51.9707 766.973 53.5195L766.236 51.8438C771.886 50.5869 775.199 47.8828 775.555 44.252H767.379V42.6016H777.738ZM784.492 54.1035V59.5625H771.848V62.2539H785.305V63.8535H769.867V58.0391H782.512V55.7031H769.816V54.1035H784.492ZM806.176 43.5918C806.176 46.7656 810.34 49.5332 814.402 50.0918L813.59 51.7168C810.086 51.1328 806.62 49.1904 805.16 46.4102C803.713 49.2031 800.234 51.1328 796.73 51.7168L795.918 50.0918C799.98 49.5332 804.119 46.8164 804.119 43.5918V42.2969H806.176V43.5918ZM815.418 54.2051V55.8809H806.074V64.0566H804.119V55.8809H794.852V54.2051H815.418ZM831.49 56.6426C831.49 58.6357 832.557 60.7559 834.715 61.9746C836.848 60.6416 837.99 58.3945 837.99 56.6426V55.3984H839.945V56.6426C839.945 58.9531 841.646 61.2891 844.541 62.2793L843.551 63.752C841.291 62.9521 839.704 61.3779 838.93 59.4863C838.231 61.3145 836.848 63.041 834.766 63.9297C832.569 63.0918 831.173 61.4287 830.5 59.5371C829.7 61.3652 828.139 62.9395 825.98 63.752L824.965 62.2793C827.809 61.2129 829.535 58.8008 829.561 56.6426V55.3984H831.49V56.6426ZM842.484 41.5098V54.4082H840.504V41.5098H842.484ZM830.297 42.8301C833.725 42.8301 836.213 44.9629 836.213 48.1113C836.213 51.209 833.725 53.3418 830.297 53.3418C826.869 53.3418 824.381 51.209 824.381 48.1113C824.381 44.9629 826.869 42.8301 830.297 42.8301ZM830.297 44.5312C827.986 44.5059 826.311 46.0039 826.336 48.1113C826.311 50.1934 827.986 51.666 830.297 51.6914C832.582 51.666 834.258 50.1934 834.258 48.1113C834.258 46.0039 832.582 44.5059 830.297 44.5312ZM864.574 48.3398V49.9395H849.111V42.3223H851.092V48.3398H864.574ZM866.961 53.0117V54.6367H846.293V53.0117H866.961ZM864.701 61.8477V63.498H848.984V56.9473H850.965V61.8477H864.701Z" fill="white"/>
<rect x="213" y="148" width="1014" height="705" rx="281" stroke="url(#paint0_linear_3119_16685)" stroke-width="2"/>
<rect x="1143" y="362" width="155" height="71" rx="35.5" fill="#161616"/>
<rect x="1143" y="362" width="155" height="71" rx="35.5" stroke="url(#paint1_linear_3119_16685)" stroke-width="2"/>
<path d="M1183 387.203H1199.21V390.594H1193.14V407H1189.08V390.594H1183V387.203ZM1200.13 392.152H1204.04V394.736H1204.2C1204.47 393.825 1204.92 393.132 1205.56 392.658C1206.19 392.175 1206.93 391.934 1207.77 391.934C1208.21 391.934 1208.64 391.979 1209.07 392.07V395.68C1208.9 395.616 1208.64 395.566 1208.29 395.529C1207.94 395.484 1207.63 395.461 1207.33 395.461C1206.73 395.461 1206.19 395.593 1205.72 395.857C1205.25 396.113 1204.87 396.477 1204.59 396.951C1204.31 397.416 1204.18 397.954 1204.18 398.564V407H1200.13V392.152ZM1217.29 407.287C1215.79 407.287 1214.49 406.977 1213.38 406.357C1212.27 405.738 1211.42 404.854 1210.82 403.705C1210.23 402.557 1209.93 401.208 1209.93 399.658C1209.93 398.127 1210.23 396.783 1210.82 395.625C1211.42 394.458 1212.26 393.556 1213.35 392.918C1214.43 392.28 1215.69 391.961 1217.12 391.961C1218.46 391.961 1219.66 392.243 1220.71 392.809C1221.75 393.365 1222.58 394.208 1223.18 395.338C1223.78 396.468 1224.08 397.849 1224.08 399.48V400.615H1211.59V398.086H1220.27C1220.27 397.484 1220.14 396.951 1219.87 396.486C1219.61 396.012 1219.24 395.643 1218.78 395.379C1218.31 395.115 1217.78 394.982 1217.19 394.982C1216.56 394.982 1216 395.128 1215.51 395.42C1215.02 395.702 1214.63 396.094 1214.35 396.596C1214.07 397.097 1213.93 397.644 1213.92 398.236V400.615C1213.92 401.354 1214.07 402.001 1214.35 402.557C1214.63 403.113 1215.03 403.536 1215.54 403.828C1216.06 404.12 1216.66 404.266 1217.34 404.266C1217.8 404.266 1218.21 404.202 1218.59 404.074C1218.96 403.938 1219.27 403.764 1219.53 403.555C1219.79 403.336 1219.99 403.081 1220.13 402.789H1223.99C1223.79 403.691 1223.4 404.484 1222.8 405.168C1222.2 405.842 1221.43 406.367 1220.49 406.74C1219.55 407.105 1218.48 407.287 1217.29 407.287ZM1230.67 407H1226.62V392.152H1230.48V394.75H1230.64C1230.99 393.875 1231.55 393.191 1232.31 392.699C1233.09 392.207 1234.02 391.961 1235.12 391.961C1236.15 391.961 1237.04 392.184 1237.81 392.631C1238.57 393.077 1239.17 393.72 1239.59 394.559C1240.01 395.397 1240.23 396.391 1240.23 397.539V407H1236.18V398.236C1236.18 397.626 1236.08 397.106 1235.87 396.678C1235.67 396.24 1235.37 395.908 1234.96 395.68C1234.56 395.443 1234.08 395.324 1233.52 395.324C1232.95 395.324 1232.45 395.447 1232.03 395.693C1231.6 395.93 1231.26 396.281 1231.03 396.746C1230.79 397.202 1230.67 397.753 1230.67 398.4V407ZM1248.83 407.232C1247.69 407.232 1246.66 406.936 1245.74 406.344C1244.83 405.751 1244.11 404.881 1243.58 403.732C1243.06 402.575 1242.8 401.194 1242.8 399.59C1242.8 397.949 1243.07 396.555 1243.61 395.406C1244.14 394.258 1244.86 393.396 1245.77 392.822C1246.68 392.248 1247.7 391.961 1248.83 391.961C1249.58 391.961 1250.22 392.079 1250.77 392.316C1251.32 392.553 1251.76 392.859 1252.11 393.232C1252.46 393.597 1252.74 394.012 1252.96 394.477L1253.04 394.641H1253.16V387.203H1257.21V407H1253.23V404.635H1253.04L1252.96 404.812C1252.73 405.259 1252.44 405.66 1252.08 406.016C1251.74 406.362 1251.29 406.654 1250.74 406.891C1250.2 407.118 1249.57 407.232 1248.83 407.232ZM1250.09 404.006C1250.75 404.006 1251.32 403.824 1251.79 403.459C1252.28 403.094 1252.64 402.575 1252.89 401.9C1253.14 401.226 1253.27 400.447 1253.27 399.562C1253.27 398.669 1253.15 397.895 1252.9 397.238C1252.66 396.582 1252.29 396.081 1251.81 395.734C1251.33 395.379 1250.76 395.201 1250.09 395.201C1249.41 395.201 1248.84 395.383 1248.36 395.748C1247.89 396.104 1247.53 396.609 1247.28 397.266C1247.05 397.922 1246.93 398.688 1246.93 399.562C1246.93 400.438 1247.05 401.212 1247.28 401.887C1247.53 402.552 1247.89 403.072 1248.36 403.445C1248.84 403.819 1249.41 404.006 1250.09 404.006Z" fill="url(#paint2_linear_3119_16685)"/>
<rect x="1015" y="154" width="153" height="71" rx="35.5" fill="#161616"/>
<rect x="1015" y="154" width="153" height="71" rx="35.5" stroke="url(#paint3_linear_3119_16685)" stroke-width="2"/>
<path d="M1069.04 186.107C1068.94 185.378 1068.69 184.749 1068.3 184.221C1067.92 183.683 1067.41 183.273 1066.79 182.99C1066.18 182.708 1065.49 182.566 1064.73 182.566C1063.7 182.566 1062.8 182.826 1062.02 183.346C1061.26 183.856 1060.66 184.604 1060.23 185.588C1059.8 186.563 1059.59 187.734 1059.59 189.102C1059.59 190.505 1059.8 191.695 1060.23 192.67C1060.66 193.636 1061.26 194.374 1062.02 194.885C1062.8 195.386 1063.69 195.637 1064.69 195.637C1065.45 195.637 1066.12 195.5 1066.73 195.227C1067.34 194.953 1067.84 194.566 1068.24 194.064C1068.65 193.554 1068.91 192.948 1069.04 192.246L1073.21 192.287C1073.05 193.527 1072.61 194.68 1071.87 195.746C1071.14 196.812 1070.15 197.669 1068.91 198.316C1067.67 198.954 1066.25 199.273 1064.63 199.273C1062.87 199.273 1061.29 198.872 1059.89 198.07C1058.5 197.259 1057.4 196.088 1056.61 194.557C1055.83 193.016 1055.43 191.198 1055.43 189.102C1055.43 186.987 1055.83 185.164 1056.62 183.633C1057.43 182.102 1058.52 180.935 1059.9 180.133C1061.3 179.331 1062.88 178.93 1064.63 178.93C1066.16 178.93 1067.53 179.212 1068.76 179.777C1069.99 180.342 1070.99 181.167 1071.76 182.252C1072.53 183.327 1073.02 184.613 1073.21 186.107H1069.04ZM1080.03 199H1075.98V179.203H1079.92V186.75H1080.08C1080.44 185.866 1080.99 185.182 1081.74 184.699C1082.49 184.207 1083.42 183.961 1084.51 183.961C1085.55 183.961 1086.46 184.184 1087.23 184.631C1088.01 185.077 1088.61 185.72 1089.03 186.559C1089.44 187.397 1089.65 188.391 1089.65 189.539V199H1085.61V190.236C1085.61 189.626 1085.5 189.102 1085.29 188.664C1085.08 188.227 1084.78 187.894 1084.38 187.666C1083.98 187.438 1083.49 187.324 1082.93 187.324C1082.35 187.324 1081.85 187.447 1081.42 187.693C1081 187.93 1080.65 188.281 1080.4 188.746C1080.15 189.211 1080.03 189.762 1080.03 190.4V199ZM1101.51 192.588C1101.14 192.597 1100.5 192.633 1099.58 192.697L1098.27 192.807C1097.55 192.861 1096.98 193.057 1096.57 193.395C1096.16 193.723 1095.96 194.169 1095.96 194.734C1095.96 195.099 1096.05 195.409 1096.23 195.664C1096.42 195.919 1096.69 196.115 1097.02 196.252C1097.37 196.389 1097.76 196.457 1098.19 196.457C1098.8 196.457 1099.34 196.339 1099.81 196.102C1100.29 195.855 1100.66 195.523 1100.92 195.104C1101.18 194.675 1101.32 194.206 1101.32 193.695L1101.29 188.896C1101.29 188.477 1101.2 188.122 1101.02 187.83C1100.84 187.529 1100.57 187.306 1100.21 187.16C1099.85 187.005 1099.43 186.928 1098.94 186.928C1098.25 186.928 1097.7 187.074 1097.27 187.365C1096.84 187.648 1096.57 188.049 1096.46 188.568H1092.61C1092.7 187.693 1093 186.91 1093.52 186.217C1094.05 185.515 1094.78 184.964 1095.71 184.562C1096.65 184.161 1097.76 183.961 1099.03 183.961C1100.18 183.961 1101.23 184.139 1102.18 184.494C1103.13 184.85 1103.89 185.406 1104.46 186.162C1105.04 186.91 1105.34 187.853 1105.34 188.992V199H1101.49V196.949H1101.38C1101.14 197.414 1100.82 197.82 1100.41 198.166C1100.01 198.512 1099.53 198.786 1098.96 198.986C1098.41 199.178 1097.76 199.273 1097.02 199.273C1096.07 199.273 1095.22 199.105 1094.48 198.768C1093.74 198.43 1093.16 197.929 1092.73 197.264C1092.3 196.598 1092.09 195.796 1092.09 194.857C1092.09 193.308 1092.6 192.182 1093.62 191.48C1094.65 190.779 1095.98 190.378 1097.61 190.277C1097.88 190.25 1098.73 190.204 1100.14 190.141L1101.48 190.086L1101.51 192.588ZM1108.41 184.152H1112.32V186.736H1112.49C1112.75 185.825 1113.2 185.132 1113.84 184.658C1114.48 184.175 1115.22 183.934 1116.05 183.934C1116.49 183.934 1116.93 183.979 1117.35 184.07V187.68C1117.18 187.616 1116.92 187.566 1116.57 187.529C1116.23 187.484 1115.91 187.461 1115.62 187.461C1115.02 187.461 1114.48 187.593 1114 187.857C1113.53 188.113 1113.15 188.477 1112.87 188.951C1112.6 189.416 1112.46 189.954 1112.46 190.564V199H1108.41V184.152ZM1127.91 187.188H1119.02V184.152H1127.91V187.188ZM1125.12 180.598V194.434C1125.12 194.816 1125.17 195.117 1125.28 195.336C1125.4 195.546 1125.56 195.696 1125.76 195.787C1125.97 195.869 1126.23 195.915 1126.53 195.924C1126.91 195.933 1127.44 195.91 1128.11 195.855V199.055C1127.5 199.155 1126.8 199.205 1125.99 199.205C1124.99 199.205 1124.12 199.055 1123.38 198.754C1122.64 198.444 1122.07 197.975 1121.66 197.346C1121.25 196.717 1121.05 195.933 1121.06 194.994V180.598H1125.12Z" fill="url(#paint4_linear_3119_16685)"/>
<rect x="713" y="818" width="231" height="71" rx="35.5" fill="#161616"/>
<rect x="713" y="818" width="231" height="71" rx="35.5" stroke="#49D88B" stroke-width="2"/>
<path d="M767.018 850.107C766.917 849.378 766.671 848.749 766.279 848.221C765.896 847.683 765.395 847.273 764.775 846.99C764.156 846.708 763.467 846.566 762.711 846.566C761.681 846.566 760.779 846.826 760.004 847.346C759.238 847.856 758.641 848.604 758.213 849.588C757.785 850.563 757.57 851.734 757.57 853.102C757.57 854.505 757.785 855.695 758.213 856.67C758.641 857.636 759.238 858.374 760.004 858.885C760.779 859.386 761.667 859.637 762.67 859.637C763.426 859.637 764.105 859.5 764.707 859.227C765.318 858.953 765.824 858.566 766.225 858.064C766.626 857.554 766.89 856.948 767.018 856.246L771.188 856.287C771.033 857.527 770.586 858.68 769.848 859.746C769.118 860.812 768.134 861.669 766.895 862.316C765.655 862.954 764.229 863.273 762.615 863.273C760.847 863.273 759.266 862.872 757.871 862.07C756.477 861.259 755.383 860.088 754.59 858.557C753.806 857.016 753.414 855.198 753.414 853.102C753.414 850.987 753.811 849.164 754.604 847.633C755.406 846.102 756.499 844.935 757.885 844.133C759.279 843.331 760.856 842.93 762.615 842.93C764.137 842.93 765.514 843.212 766.744 843.777C767.975 844.342 768.973 845.167 769.738 846.252C770.513 847.327 770.996 848.613 771.188 850.107H767.018ZM780.648 863.287C779.172 863.287 777.882 862.968 776.779 862.33C775.676 861.692 774.829 860.794 774.236 859.637C773.644 858.479 773.348 857.144 773.348 855.631C773.348 854.1 773.644 852.76 774.236 851.611C774.829 850.454 775.676 849.556 776.779 848.918C777.882 848.28 779.172 847.961 780.648 847.961C782.116 847.961 783.401 848.28 784.504 848.918C785.616 849.556 786.464 850.454 787.047 851.611C787.63 852.76 787.922 854.1 787.922 855.631C787.922 857.144 787.63 858.479 787.047 859.637C786.464 860.794 785.616 861.692 784.504 862.33C783.401 862.968 782.116 863.287 780.648 863.287ZM780.676 860.156C781.35 860.156 781.92 859.96 782.385 859.568C782.859 859.176 783.214 858.639 783.451 857.955C783.688 857.262 783.807 856.479 783.807 855.604C783.807 854.719 783.688 853.936 783.451 853.252C783.214 852.568 782.859 852.031 782.385 851.639C781.92 851.247 781.35 851.051 780.676 851.051C779.983 851.051 779.395 851.247 778.912 851.639C778.429 852.031 778.064 852.568 777.818 853.252C777.572 853.926 777.449 854.71 777.449 855.604C777.449 856.488 777.572 857.271 777.818 857.955C778.064 858.639 778.429 859.176 778.912 859.568C779.395 859.96 779.983 860.156 780.676 860.156ZM790.479 848.152H794.334V850.75H794.498C794.826 849.866 795.35 849.182 796.07 848.699C796.79 848.207 797.647 847.961 798.641 847.961C799.306 847.961 799.912 848.075 800.459 848.303C801.015 848.521 801.48 848.84 801.854 849.26C802.227 849.679 802.501 850.176 802.674 850.75H802.811C803.029 850.185 803.353 849.693 803.781 849.273C804.21 848.854 804.725 848.531 805.326 848.303C805.928 848.075 806.584 847.961 807.295 847.961C808.225 847.961 809.04 848.161 809.742 848.562C810.453 848.954 811.005 849.533 811.396 850.299C811.788 851.055 811.984 851.967 811.984 853.033V863H807.924V853.799C807.924 852.988 807.71 852.372 807.281 851.953C806.853 851.525 806.292 851.311 805.6 851.311C805.098 851.311 804.665 851.42 804.301 851.639C803.945 851.848 803.667 852.149 803.467 852.541C803.275 852.924 803.18 853.38 803.18 853.908V863H799.256V853.689C799.256 853.215 799.16 852.796 798.969 852.432C798.786 852.067 798.522 851.789 798.176 851.598C797.829 851.406 797.428 851.311 796.973 851.311C796.517 851.311 796.102 851.424 795.729 851.652C795.364 851.871 795.072 852.19 794.854 852.609C794.635 853.029 794.525 853.516 794.525 854.072V863H790.479V848.152ZM815.088 848.152H818.943V850.75H819.107C819.436 849.866 819.96 849.182 820.68 848.699C821.4 848.207 822.257 847.961 823.25 847.961C823.915 847.961 824.521 848.075 825.068 848.303C825.624 848.521 826.089 848.84 826.463 849.26C826.837 849.679 827.11 850.176 827.283 850.75H827.42C827.639 850.185 827.962 849.693 828.391 849.273C828.819 848.854 829.334 848.531 829.936 848.303C830.537 848.075 831.193 847.961 831.904 847.961C832.834 847.961 833.65 848.161 834.352 848.562C835.062 848.954 835.614 849.533 836.006 850.299C836.398 851.055 836.594 851.967 836.594 853.033V863H832.533V853.799C832.533 852.988 832.319 852.372 831.891 851.953C831.462 851.525 830.902 851.311 830.209 851.311C829.708 851.311 829.275 851.42 828.91 851.639C828.555 851.848 828.277 852.149 828.076 852.541C827.885 852.924 827.789 853.38 827.789 853.908V863H823.865V853.689C823.865 853.215 823.77 852.796 823.578 852.432C823.396 852.067 823.132 851.789 822.785 851.598C822.439 851.406 822.038 851.311 821.582 851.311C821.126 851.311 820.712 851.424 820.338 851.652C819.973 851.871 819.682 852.19 819.463 852.609C819.244 853.029 819.135 853.516 819.135 854.072V863H815.088V848.152ZM849.227 848.152H853.246V863H849.377V860.32H849.213C848.857 861.204 848.292 861.906 847.518 862.426C846.743 862.936 845.809 863.191 844.715 863.191C843.73 863.191 842.86 862.968 842.104 862.521C841.347 862.066 840.755 861.419 840.326 860.58C839.907 859.732 839.697 858.739 839.697 857.6V848.152H843.744V856.902C843.744 857.477 843.849 857.982 844.059 858.42C844.268 858.848 844.569 859.181 844.961 859.418C845.362 859.646 845.818 859.76 846.328 859.76C846.848 859.76 847.326 859.641 847.764 859.404C848.21 859.167 848.566 858.812 848.83 858.338C849.094 857.864 849.227 857.308 849.227 856.67V848.152ZM860.451 863H856.404V848.152H860.26V850.75H860.424C860.77 849.875 861.326 849.191 862.092 848.699C862.867 848.207 863.801 847.961 864.895 847.961C865.924 847.961 866.822 848.184 867.588 848.631C868.354 849.077 868.946 849.72 869.365 850.559C869.794 851.397 870.008 852.391 870.008 853.539V863H865.961V854.236C865.961 853.626 865.856 853.106 865.646 852.678C865.446 852.24 865.145 851.908 864.744 851.68C864.343 851.443 863.86 851.324 863.295 851.324C862.73 851.324 862.233 851.447 861.805 851.693C861.376 851.93 861.044 852.281 860.807 852.746C860.57 853.202 860.451 853.753 860.451 854.4V863ZM873.139 848.152H877.186V863H873.139V848.152ZM875.162 846.197C874.761 846.197 874.392 846.106 874.055 845.924C873.717 845.742 873.449 845.491 873.248 845.172C873.048 844.853 872.947 844.511 872.947 844.146C872.947 843.773 873.048 843.431 873.248 843.121C873.449 842.802 873.717 842.551 874.055 842.369C874.392 842.187 874.761 842.096 875.162 842.096C875.563 842.096 875.932 842.187 876.27 842.369C876.607 842.551 876.871 842.802 877.062 843.121C877.263 843.431 877.363 843.773 877.363 844.146C877.363 844.511 877.263 844.853 877.062 845.172C876.871 845.491 876.607 845.742 876.27 845.924C875.932 846.106 875.563 846.197 875.162 846.197ZM888.15 851.188H879.264V848.152H888.15V851.188ZM885.361 844.598V858.434C885.361 858.816 885.416 859.117 885.525 859.336C885.644 859.546 885.803 859.696 886.004 859.787C886.214 859.869 886.469 859.915 886.77 859.924C887.152 859.933 887.681 859.91 888.355 859.855V863.055C887.745 863.155 887.038 863.205 886.236 863.205C885.234 863.205 884.363 863.055 883.625 862.754C882.887 862.444 882.312 861.975 881.902 861.346C881.492 860.717 881.292 859.933 881.301 858.994V844.598H885.361ZM893.072 868.578C892.279 868.578 891.596 868.555 891.021 868.51V865.352L891.705 865.393C891.979 865.402 892.298 865.406 892.662 865.406C892.99 865.406 893.264 865.379 893.482 865.324C893.701 865.27 893.906 865.142 894.098 864.941C894.289 864.741 894.458 864.44 894.604 864.039L894.85 863.424L889.504 848.152H893.77L896.887 859.09H897.051L900.182 848.152H904.475L898.678 864.627C898.231 865.885 897.561 866.855 896.668 867.539C895.775 868.232 894.576 868.578 893.072 868.578Z" fill="#49D88B"/>
<rect x="186" y="695" width="155" height="71" rx="35.5" fill="#161616"/>
<rect x="186" y="695" width="155" height="71" rx="35.5" stroke="#6D67EC" stroke-width="2"/>
<path d="M239.902 726.588C239.729 725.959 239.447 725.421 239.055 724.975C238.663 724.519 238.184 724.173 237.619 723.936C237.063 723.689 236.421 723.566 235.691 723.566C234.671 723.566 233.773 723.822 232.998 724.332C232.232 724.842 231.631 725.59 231.193 726.574C230.765 727.549 230.551 728.721 230.551 730.088C230.551 731.464 230.76 732.645 231.18 733.629C231.608 734.604 232.21 735.352 232.984 735.871C233.768 736.382 234.684 736.637 235.732 736.637C236.68 736.637 237.496 736.464 238.18 736.117C238.872 735.771 239.396 735.283 239.752 734.654C240.117 734.016 240.299 733.273 240.299 732.426L241.146 732.549H236.006V729.418H244.264V731.906C244.264 733.611 243.899 735.096 243.17 736.363C242.441 737.621 241.429 738.587 240.135 739.262C238.85 739.936 237.378 740.273 235.719 740.273C233.878 740.273 232.251 739.863 230.838 739.043C229.434 738.214 228.34 737.033 227.557 735.502C226.782 733.971 226.395 732.175 226.395 730.115C226.395 728.028 226.796 726.219 227.598 724.688C228.409 723.147 229.512 721.971 230.906 721.16C232.301 720.34 233.873 719.93 235.623 719.93C237.1 719.93 238.449 720.212 239.67 720.777C240.891 721.342 241.885 722.126 242.65 723.129C243.425 724.132 243.904 725.285 244.086 726.588H239.902ZM255.898 733.588C255.534 733.597 254.891 733.633 253.971 733.697L252.658 733.807C251.938 733.861 251.373 734.057 250.963 734.395C250.553 734.723 250.348 735.169 250.348 735.734C250.348 736.099 250.439 736.409 250.621 736.664C250.812 736.919 251.077 737.115 251.414 737.252C251.76 737.389 252.148 737.457 252.576 737.457C253.187 737.457 253.729 737.339 254.203 737.102C254.677 736.855 255.046 736.523 255.311 736.104C255.575 735.675 255.707 735.206 255.707 734.695L255.68 729.896C255.68 729.477 255.589 729.122 255.406 728.83C255.233 728.529 254.964 728.306 254.6 728.16C254.244 728.005 253.82 727.928 253.328 727.928C252.645 727.928 252.089 728.074 251.66 728.365C251.232 728.648 250.963 729.049 250.854 729.568H246.998C247.089 728.693 247.395 727.91 247.914 727.217C248.443 726.515 249.172 725.964 250.102 725.562C251.04 725.161 252.148 724.961 253.424 724.961C254.572 724.961 255.62 725.139 256.568 725.494C257.516 725.85 258.277 726.406 258.852 727.162C259.435 727.91 259.727 728.853 259.727 729.992V740H255.885V737.949H255.775C255.529 738.414 255.206 738.82 254.805 739.166C254.404 739.512 253.921 739.786 253.355 739.986C252.799 740.178 252.152 740.273 251.414 740.273C250.457 740.273 249.609 740.105 248.871 739.768C248.133 739.43 247.549 738.929 247.121 738.264C246.693 737.598 246.479 736.796 246.479 735.857C246.479 734.308 246.989 733.182 248.01 732.48C249.04 731.779 250.37 731.378 252.002 731.277C252.275 731.25 253.118 731.204 254.531 731.141L255.871 731.086L255.898 733.588ZM262.803 725.152H266.658V727.75H266.822C267.15 726.866 267.674 726.182 268.395 725.699C269.115 725.207 269.971 724.961 270.965 724.961C271.63 724.961 272.236 725.075 272.783 725.303C273.339 725.521 273.804 725.84 274.178 726.26C274.551 726.679 274.825 727.176 274.998 727.75H275.135C275.354 727.185 275.677 726.693 276.105 726.273C276.534 725.854 277.049 725.531 277.65 725.303C278.252 725.075 278.908 724.961 279.619 724.961C280.549 724.961 281.365 725.161 282.066 725.562C282.777 725.954 283.329 726.533 283.721 727.299C284.113 728.055 284.309 728.967 284.309 730.033V740H280.248V730.799C280.248 729.988 280.034 729.372 279.605 728.953C279.177 728.525 278.617 728.311 277.924 728.311C277.423 728.311 276.99 728.42 276.625 728.639C276.27 728.848 275.992 729.149 275.791 729.541C275.6 729.924 275.504 730.38 275.504 730.908V740H271.58V730.689C271.58 730.215 271.484 729.796 271.293 729.432C271.111 729.067 270.846 728.789 270.5 728.598C270.154 728.406 269.753 728.311 269.297 728.311C268.841 728.311 268.426 728.424 268.053 728.652C267.688 728.871 267.396 729.19 267.178 729.609C266.959 730.029 266.85 730.516 266.85 731.072V740H262.803V725.152ZM294.152 740.287C292.658 740.287 291.354 739.977 290.242 739.357C289.139 738.738 288.287 737.854 287.686 736.705C287.093 735.557 286.797 734.208 286.797 732.658C286.797 731.127 287.093 729.783 287.686 728.625C288.287 727.458 289.13 726.556 290.215 725.918C291.299 725.28 292.557 724.961 293.988 724.961C295.328 724.961 296.522 725.243 297.57 725.809C298.618 726.365 299.443 727.208 300.045 728.338C300.646 729.468 300.947 730.849 300.947 732.48V733.615H288.451V731.086H297.133C297.133 730.484 297.001 729.951 296.736 729.486C296.472 729.012 296.107 728.643 295.643 728.379C295.178 728.115 294.649 727.982 294.057 727.982C293.428 727.982 292.867 728.128 292.375 728.42C291.883 728.702 291.495 729.094 291.213 729.596C290.939 730.097 290.798 730.644 290.789 731.236V733.615C290.789 734.354 290.93 735.001 291.213 735.557C291.495 736.113 291.892 736.536 292.402 736.828C292.922 737.12 293.523 737.266 294.207 737.266C294.663 737.266 295.077 737.202 295.451 737.074C295.825 736.938 296.139 736.764 296.395 736.555C296.659 736.336 296.859 736.081 296.996 735.789H300.852C300.66 736.691 300.264 737.484 299.662 738.168C299.07 738.842 298.299 739.367 297.352 739.74C296.413 740.105 295.346 740.287 294.152 740.287Z" fill="#6D67EC"/>
<path fill-rule="evenodd" clip-rule="evenodd" d="M620.5 94C600.342 94 584 110.342 584 130.5C584 150.658 600.342 167 620.5 167H666.994C672.603 179.944 685.494 189 700.5 189H802.5C822.658 189 839 172.658 839 152.5C839 132.342 822.658 116 802.5 116H743.006C737.397 103.056 724.506 94 709.5 94H620.5Z" fill="url(#paint5_linear_3119_16685)"/>
<path d="M716.883 147.863C716.828 147.335 716.66 146.883 716.377 146.51C716.104 146.136 715.721 145.854 715.229 145.662C714.736 145.471 714.148 145.375 713.465 145.375C712.799 145.375 712.221 145.471 711.729 145.662C711.245 145.854 710.876 146.122 710.621 146.469C710.366 146.806 710.238 147.193 710.238 147.631C710.229 148.296 710.503 148.816 711.059 149.189C711.624 149.563 712.403 149.873 713.396 150.119L715.174 150.543C717.051 150.962 718.505 151.641 719.535 152.58C720.574 153.51 721.098 154.768 721.107 156.354C721.107 157.548 720.802 158.591 720.191 159.484C719.581 160.378 718.701 161.066 717.553 161.549C716.404 162.032 715.033 162.273 713.438 162.273C711.842 162.273 710.452 162.027 709.268 161.535C708.092 161.043 707.18 160.318 706.533 159.361C705.886 158.395 705.54 157.215 705.494 155.82H709.486C709.541 156.467 709.737 157.014 710.074 157.461C710.411 157.908 710.867 158.245 711.441 158.473C712.016 158.701 712.667 158.814 713.396 158.814C714.107 158.814 714.732 158.71 715.27 158.5C715.807 158.29 716.222 157.999 716.514 157.625C716.805 157.242 716.951 156.809 716.951 156.326C716.951 155.889 716.824 155.52 716.568 155.219C716.313 154.909 715.939 154.649 715.447 154.439C714.964 154.221 714.34 154.016 713.574 153.824L711.4 153.305C709.669 152.876 708.338 152.225 707.408 151.35C706.488 150.465 706.027 149.317 706.027 147.904C706.027 146.729 706.346 145.689 706.984 144.787C707.632 143.885 708.52 143.183 709.65 142.682C710.79 142.18 712.075 141.93 713.506 141.93C714.946 141.93 716.217 142.18 717.32 142.682C718.423 143.174 719.28 143.871 719.891 144.773C720.501 145.667 720.816 146.697 720.834 147.863H716.883ZM723.705 147.152H727.684V149.641H727.875L727.957 149.477C728.194 149.012 728.486 148.597 728.832 148.232C729.178 147.859 729.625 147.553 730.172 147.316C730.719 147.079 731.361 146.961 732.1 146.961C733.221 146.961 734.237 147.248 735.148 147.822C736.06 148.396 736.78 149.258 737.309 150.406C737.846 151.555 738.115 152.949 738.115 154.59C738.115 156.194 737.855 157.575 737.336 158.732C736.816 159.881 736.101 160.751 735.189 161.344C734.278 161.936 733.243 162.232 732.086 162.232C731.357 162.232 730.71 162.109 730.145 161.863C729.589 161.617 729.137 161.316 728.791 160.961C728.445 160.605 728.148 160.191 727.902 159.717L727.875 159.635H727.752V167.578H723.705V147.152ZM727.643 154.562C727.643 155.447 727.77 156.226 728.025 156.9C728.281 157.575 728.645 158.094 729.119 158.459C729.593 158.824 730.167 159.006 730.842 159.006C731.507 159.006 732.077 158.819 732.551 158.445C733.034 158.072 733.394 157.552 733.631 156.887C733.877 156.212 734 155.438 734 154.562C734 153.688 733.877 152.922 733.631 152.266C733.394 151.609 733.038 151.104 732.564 150.748C732.09 150.383 731.516 150.201 730.842 150.201C730.167 150.201 729.593 150.379 729.119 150.734C728.645 151.081 728.281 151.582 728.025 152.238C727.77 152.895 727.643 153.669 727.643 154.562ZM744.76 162H740.713V142.203H744.65V149.75H744.814C745.17 148.866 745.721 148.182 746.469 147.699C747.225 147.207 748.15 146.961 749.244 146.961C750.283 146.961 751.19 147.184 751.965 147.631C752.74 148.077 753.337 148.72 753.756 149.559C754.175 150.397 754.385 151.391 754.385 152.539V162H750.338V153.236C750.338 152.626 750.233 152.102 750.023 151.664C749.814 151.227 749.508 150.894 749.107 150.666C748.706 150.438 748.223 150.324 747.658 150.324C747.084 150.324 746.583 150.447 746.154 150.693C745.726 150.93 745.384 151.281 745.129 151.746C744.883 152.211 744.76 152.762 744.76 153.4V162ZM764.27 162.287C762.775 162.287 761.471 161.977 760.359 161.357C759.257 160.738 758.404 159.854 757.803 158.705C757.21 157.557 756.914 156.208 756.914 154.658C756.914 153.127 757.21 151.783 757.803 150.625C758.404 149.458 759.247 148.556 760.332 147.918C761.417 147.28 762.674 146.961 764.105 146.961C765.445 146.961 766.639 147.243 767.688 147.809C768.736 148.365 769.561 149.208 770.162 150.338C770.764 151.468 771.064 152.849 771.064 154.48V155.615H758.568V153.086H767.25C767.25 152.484 767.118 151.951 766.854 151.486C766.589 151.012 766.225 150.643 765.76 150.379C765.295 150.115 764.766 149.982 764.174 149.982C763.545 149.982 762.984 150.128 762.492 150.42C762 150.702 761.613 151.094 761.33 151.596C761.057 152.097 760.915 152.644 760.906 153.236V155.615C760.906 156.354 761.048 157.001 761.33 157.557C761.613 158.113 762.009 158.536 762.52 158.828C763.039 159.12 763.641 159.266 764.324 159.266C764.78 159.266 765.195 159.202 765.568 159.074C765.942 158.938 766.257 158.764 766.512 158.555C766.776 158.336 766.977 158.081 767.113 157.789H770.969C770.777 158.691 770.381 159.484 769.779 160.168C769.187 160.842 768.417 161.367 767.469 161.74C766.53 162.105 765.464 162.287 764.27 162.287ZM773.607 147.152H777.518V149.736H777.682C777.946 148.825 778.397 148.132 779.035 147.658C779.673 147.175 780.411 146.934 781.25 146.934C781.688 146.934 782.12 146.979 782.549 147.07V150.68C782.376 150.616 782.116 150.566 781.77 150.529C781.423 150.484 781.104 150.461 780.812 150.461C780.211 150.461 779.673 150.593 779.199 150.857C778.725 151.113 778.347 151.477 778.064 151.951C777.791 152.416 777.654 152.954 777.654 153.564V162H773.607V147.152ZM790.766 162.287C789.271 162.287 787.967 161.977 786.855 161.357C785.753 160.738 784.9 159.854 784.299 158.705C783.706 157.557 783.41 156.208 783.41 154.658C783.41 153.127 783.706 151.783 784.299 150.625C784.9 149.458 785.743 148.556 786.828 147.918C787.913 147.28 789.171 146.961 790.602 146.961C791.941 146.961 793.135 147.243 794.184 147.809C795.232 148.365 796.057 149.208 796.658 150.338C797.26 151.468 797.561 152.849 797.561 154.48V155.615H785.064V153.086H793.746C793.746 152.484 793.614 151.951 793.35 151.486C793.085 151.012 792.721 150.643 792.256 150.379C791.791 150.115 791.262 149.982 790.67 149.982C790.041 149.982 789.48 150.128 788.988 150.42C788.496 150.702 788.109 151.094 787.826 151.596C787.553 152.097 787.411 152.644 787.402 153.236V155.615C787.402 156.354 787.544 157.001 787.826 157.557C788.109 158.113 788.505 158.536 789.016 158.828C789.535 159.12 790.137 159.266 790.82 159.266C791.276 159.266 791.691 159.202 792.064 159.074C792.438 158.938 792.753 158.764 793.008 158.555C793.272 158.336 793.473 158.081 793.609 157.789H797.465C797.273 158.691 796.877 159.484 796.275 160.168C795.683 160.842 794.913 161.367 793.965 161.74C793.026 162.105 791.96 162.287 790.766 162.287Z" fill="white"/>
<path d="M630.998 121.203L636.508 134.615H636.74L642.236 121.203H647.309V141H643.316V128.025H643.152L637.984 140.904H635.236L630.082 127.998H629.918V141H625.939V121.203H630.998ZM657.303 141.287C655.808 141.287 654.505 140.977 653.393 140.357C652.29 139.738 651.438 138.854 650.836 137.705C650.243 136.557 649.947 135.208 649.947 133.658C649.947 132.127 650.243 130.783 650.836 129.625C651.438 128.458 652.281 127.556 653.365 126.918C654.45 126.28 655.708 125.961 657.139 125.961C658.479 125.961 659.673 126.243 660.721 126.809C661.769 127.365 662.594 128.208 663.195 129.338C663.797 130.468 664.098 131.849 664.098 133.48V134.615H651.602V132.086H660.283C660.283 131.484 660.151 130.951 659.887 130.486C659.622 130.012 659.258 129.643 658.793 129.379C658.328 129.115 657.799 128.982 657.207 128.982C656.578 128.982 656.018 129.128 655.525 129.42C655.033 129.702 654.646 130.094 654.363 130.596C654.09 131.097 653.949 131.644 653.939 132.236V134.615C653.939 135.354 654.081 136.001 654.363 136.557C654.646 137.113 655.042 137.536 655.553 137.828C656.072 138.12 656.674 138.266 657.357 138.266C657.813 138.266 658.228 138.202 658.602 138.074C658.975 137.938 659.29 137.764 659.545 137.555C659.809 137.336 660.01 137.081 660.146 136.789H664.002C663.811 137.691 663.414 138.484 662.812 139.168C662.22 139.842 661.45 140.367 660.502 140.74C659.563 141.105 658.497 141.287 657.303 141.287ZM666.641 126.152H670.496V128.75H670.66C670.988 127.866 671.512 127.182 672.232 126.699C672.952 126.207 673.809 125.961 674.803 125.961C675.468 125.961 676.074 126.075 676.621 126.303C677.177 126.521 677.642 126.84 678.016 127.26C678.389 127.679 678.663 128.176 678.836 128.75H678.973C679.191 128.185 679.515 127.693 679.943 127.273C680.372 126.854 680.887 126.531 681.488 126.303C682.09 126.075 682.746 125.961 683.457 125.961C684.387 125.961 685.202 126.161 685.904 126.562C686.615 126.954 687.167 127.533 687.559 128.299C687.951 129.055 688.146 129.967 688.146 131.033V141H684.086V131.799C684.086 130.988 683.872 130.372 683.443 129.953C683.015 129.525 682.454 129.311 681.762 129.311C681.26 129.311 680.827 129.42 680.463 129.639C680.107 129.848 679.829 130.149 679.629 130.541C679.438 130.924 679.342 131.38 679.342 131.908V141H675.418V131.689C675.418 131.215 675.322 130.796 675.131 130.432C674.949 130.067 674.684 129.789 674.338 129.598C673.992 129.406 673.59 129.311 673.135 129.311C672.679 129.311 672.264 129.424 671.891 129.652C671.526 129.871 671.234 130.19 671.016 130.609C670.797 131.029 670.688 131.516 670.688 132.072V141H666.641V126.152ZM697.99 141.287C696.495 141.287 695.192 140.977 694.08 140.357C692.977 139.738 692.125 138.854 691.523 137.705C690.931 136.557 690.635 135.208 690.635 133.658C690.635 132.127 690.931 130.783 691.523 129.625C692.125 128.458 692.968 127.556 694.053 126.918C695.137 126.28 696.395 125.961 697.826 125.961C699.166 125.961 700.36 126.243 701.408 126.809C702.456 127.365 703.281 128.208 703.883 129.338C704.484 130.468 704.785 131.849 704.785 133.48V134.615H692.289V132.086H700.971C700.971 131.484 700.839 130.951 700.574 130.486C700.31 130.012 699.945 129.643 699.48 129.379C699.016 129.115 698.487 128.982 697.895 128.982C697.266 128.982 696.705 129.128 696.213 129.42C695.721 129.702 695.333 130.094 695.051 130.596C694.777 131.097 694.636 131.644 694.627 132.236V134.615C694.627 135.354 694.768 136.001 695.051 136.557C695.333 137.113 695.73 137.536 696.24 137.828C696.76 138.12 697.361 138.266 698.045 138.266C698.501 138.266 698.915 138.202 699.289 138.074C699.663 137.938 699.977 137.764 700.232 137.555C700.497 137.336 700.697 137.081 700.834 136.789H704.689C704.498 137.691 704.102 138.484 703.5 139.168C702.908 139.842 702.137 140.367 701.189 140.74C700.251 141.105 699.184 141.287 697.99 141.287Z" fill="white"/>
<g clip-path="url(#clip0_3119_16685)">
<path d="M655.922 861.674L655.879 861.847C650.998 880.952 631.523 892.564 612.287 887.786C593.003 882.996 581.269 863.535 586.078 844.33L586.078 844.33C590.884 825.119 610.418 813.422 629.706 818.213L629.706 818.213C648.997 823.004 660.73 842.466 655.922 861.674Z" fill="#3BB6B8" stroke="#3BB6B8" stroke-width="2"/>
<path d="M637.317 847.748C638.054 842.843 634.304 840.206 629.178 838.447L630.841 831.803L626.78 830.795L625.161 837.265C624.094 836.999 622.998 836.749 621.908 836.502L623.539 829.989L619.481 828.981L617.817 835.624C616.933 835.424 616.066 835.226 615.224 835.017L615.229 834.996L609.629 833.603L608.549 837.923C608.549 837.923 611.561 838.611 611.498 838.653C613.142 839.062 613.44 840.147 613.39 841.006L611.496 848.576C611.609 848.604 611.756 848.646 611.918 848.711C611.782 848.677 611.638 848.641 611.489 848.605L608.833 859.209C608.632 859.707 608.122 860.454 606.973 860.17C607.013 860.229 604.021 859.436 604.021 859.436L602.94 864.318L607.289 865.378C608.273 865.624 609.236 865.881 610.185 866.123L608.504 872.843L612.56 873.851L614.224 867.202C615.332 867.501 616.407 867.778 617.46 868.038L615.802 874.656L619.862 875.664L621.543 868.956C628.467 870.261 633.673 869.735 635.865 863.497C637.631 858.474 635.777 855.577 632.134 853.688C634.787 853.078 636.786 851.34 637.319 847.749L637.317 847.748ZM628.04 860.707C626.785 865.73 618.295 863.015 615.542 862.334L617.772 853.43C620.524 854.115 629.351 855.469 628.04 860.707ZM629.295 847.676C628.151 852.244 621.084 849.923 618.792 849.354L620.814 841.279C623.106 841.848 630.488 842.91 629.295 847.676Z" fill="#161616"/>
</g>
<rect x="176" y="428" width="72" height="72" rx="36" fill="#161616"/>
<rect x="176" y="428" width="72" height="72" rx="36" stroke="#7062EE" stroke-width="2"/>
<path d="M202.028 483.826C202.386 484.378 201.67 485.024 201.057 484.654C198.804 483.503 197.169 482.027 195.84 480.183C190.981 473.591 192.464 465.062 199.471 459.207C201.619 457.41 203.919 455.751 206.066 453.906C209.493 451.001 210.874 447.359 210.055 443.118C209.952 442.565 210.719 442.196 211.232 442.565C219.312 449.019 220.129 456.995 218.749 465.707C218.646 466.26 219.362 466.629 219.823 466.306C221.664 465.108 222.431 463.449 223.044 459.391C223.147 458.792 224.015 458.653 224.373 459.161C229.897 467.827 229.742 481.289 218.697 485.53C218.136 485.76 217.521 485.207 217.778 484.701C220.232 479.768 219.261 475.48 214.351 471.701C211.793 469.811 209.442 467.875 209.391 464.786C209.391 464.233 208.623 463.957 208.214 464.324C204.737 467.367 204.276 471.193 204.737 475.342C204.789 475.941 203.918 476.263 203.509 475.804C203.1 475.342 202.793 474.882 202.59 474.329C202.386 473.777 201.464 473.73 201.261 474.329C200.187 477.51 199.981 480.644 202.028 483.826L202.028 483.826Z" fill="#7062EE"/>
<circle cx="1180.5" cy="272.5" r="10.5" fill="#161616" stroke="url(#paint6_linear_3119_16685)" stroke-width="2"/>
<circle cx="217.5" cy="629.5" r="10.5" fill="#7062EE"/>
<rect x="110" y="326" width="212" height="71" rx="35.5" fill="#161616"/>
<rect x="110" y="326" width="212" height="71" rx="35.5" stroke="#7062EF" stroke-width="2"/>
<path d="M163.992 358.107C163.892 357.378 163.646 356.749 163.254 356.221C162.871 355.683 162.37 355.273 161.75 354.99C161.13 354.708 160.442 354.566 159.686 354.566C158.656 354.566 157.753 354.826 156.979 355.346C156.213 355.856 155.616 356.604 155.188 357.588C154.759 358.563 154.545 359.734 154.545 361.102C154.545 362.505 154.759 363.695 155.188 364.67C155.616 365.636 156.213 366.374 156.979 366.885C157.753 367.386 158.642 367.637 159.645 367.637C160.401 367.637 161.08 367.5 161.682 367.227C162.292 366.953 162.798 366.566 163.199 366.064C163.6 365.554 163.865 364.948 163.992 364.246L168.162 364.287C168.007 365.527 167.561 366.68 166.822 367.746C166.093 368.812 165.109 369.669 163.869 370.316C162.63 370.954 161.203 371.273 159.59 371.273C157.822 371.273 156.24 370.872 154.846 370.07C153.451 369.259 152.357 368.088 151.564 366.557C150.781 365.016 150.389 363.198 150.389 361.102C150.389 358.987 150.785 357.164 151.578 355.633C152.38 354.102 153.474 352.935 154.859 352.133C156.254 351.331 157.831 350.93 159.59 350.93C161.112 350.93 162.488 351.212 163.719 351.777C164.949 352.342 165.947 353.167 166.713 354.252C167.488 355.327 167.971 356.613 168.162 358.107H163.992ZM177.623 371.287C176.146 371.287 174.857 370.968 173.754 370.33C172.651 369.692 171.803 368.794 171.211 367.637C170.618 366.479 170.322 365.144 170.322 363.631C170.322 362.1 170.618 360.76 171.211 359.611C171.803 358.454 172.651 357.556 173.754 356.918C174.857 356.28 176.146 355.961 177.623 355.961C179.09 355.961 180.376 356.28 181.479 356.918C182.59 357.556 183.438 358.454 184.021 359.611C184.605 360.76 184.896 362.1 184.896 363.631C184.896 365.144 184.605 366.479 184.021 367.637C183.438 368.794 182.59 369.692 181.479 370.33C180.376 370.968 179.09 371.287 177.623 371.287ZM177.65 368.156C178.325 368.156 178.895 367.96 179.359 367.568C179.833 367.176 180.189 366.639 180.426 365.955C180.663 365.262 180.781 364.479 180.781 363.604C180.781 362.719 180.663 361.936 180.426 361.252C180.189 360.568 179.833 360.031 179.359 359.639C178.895 359.247 178.325 359.051 177.65 359.051C176.958 359.051 176.37 359.247 175.887 359.639C175.404 360.031 175.039 360.568 174.793 361.252C174.547 361.926 174.424 362.71 174.424 363.604C174.424 364.488 174.547 365.271 174.793 365.955C175.039 366.639 175.404 367.176 175.887 367.568C176.37 367.96 176.958 368.156 177.65 368.156ZM191.5 371H187.453V351.203H191.5V371ZM198.691 371H194.645V351.203H198.691V371ZM208.576 371.287C207.081 371.287 205.778 370.977 204.666 370.357C203.563 369.738 202.711 368.854 202.109 367.705C201.517 366.557 201.221 365.208 201.221 363.658C201.221 362.127 201.517 360.783 202.109 359.625C202.711 358.458 203.554 357.556 204.639 356.918C205.723 356.28 206.981 355.961 208.412 355.961C209.752 355.961 210.946 356.243 211.994 356.809C213.042 357.365 213.867 358.208 214.469 359.338C215.07 360.468 215.371 361.849 215.371 363.48V364.615H202.875V362.086H211.557C211.557 361.484 211.424 360.951 211.16 360.486C210.896 360.012 210.531 359.643 210.066 359.379C209.602 359.115 209.073 358.982 208.48 358.982C207.852 358.982 207.291 359.128 206.799 359.42C206.307 359.702 205.919 360.094 205.637 360.596C205.363 361.097 205.222 361.644 205.213 362.236V364.615C205.213 365.354 205.354 366.001 205.637 366.557C205.919 367.113 206.316 367.536 206.826 367.828C207.346 368.12 207.947 368.266 208.631 368.266C209.087 368.266 209.501 368.202 209.875 368.074C210.249 367.938 210.563 367.764 210.818 367.555C211.083 367.336 211.283 367.081 211.42 366.789H215.275C215.084 367.691 214.688 368.484 214.086 369.168C213.493 369.842 212.723 370.367 211.775 370.74C210.837 371.105 209.77 371.287 208.576 371.287ZM224.6 371.287C223.105 371.287 221.806 370.964 220.703 370.316C219.6 369.669 218.757 368.767 218.174 367.609C217.59 366.452 217.299 365.126 217.299 363.631C217.299 362.118 217.595 360.783 218.188 359.625C218.78 358.467 219.623 357.57 220.717 356.932C221.811 356.285 223.096 355.961 224.572 355.961C225.848 355.961 226.974 356.193 227.949 356.658C228.934 357.114 229.704 357.77 230.26 358.627C230.825 359.484 231.135 360.473 231.189 361.594H227.361C227.288 361.102 227.133 360.669 226.896 360.295C226.66 359.912 226.35 359.62 225.967 359.42C225.584 359.21 225.142 359.105 224.641 359.105C223.993 359.105 223.428 359.283 222.945 359.639C222.462 359.985 222.084 360.491 221.811 361.156C221.537 361.822 221.4 362.624 221.4 363.562C221.4 364.51 221.533 365.322 221.797 365.996C222.07 366.661 222.449 367.172 222.932 367.527C223.415 367.883 223.984 368.061 224.641 368.061C225.124 368.061 225.557 367.969 225.939 367.787C226.322 367.596 226.637 367.313 226.883 366.939C227.129 366.566 227.288 366.119 227.361 365.6H231.189C231.126 366.721 230.816 367.71 230.26 368.566C229.713 369.423 228.952 370.093 227.977 370.576C227.01 371.05 225.885 371.287 224.6 371.287ZM241.512 359.188H232.625V356.152H241.512V359.188ZM238.723 352.598V366.434C238.723 366.816 238.777 367.117 238.887 367.336C239.005 367.546 239.165 367.696 239.365 367.787C239.575 367.869 239.83 367.915 240.131 367.924C240.514 367.933 241.042 367.91 241.717 367.855V371.055C241.106 371.155 240.4 371.205 239.598 371.205C238.595 371.205 237.725 371.055 236.986 370.754C236.248 370.444 235.674 369.975 235.264 369.346C234.854 368.717 234.653 367.933 234.662 366.994V352.598H238.723ZM244.055 356.152H248.102V371H244.055V356.152ZM246.078 354.197C245.677 354.197 245.308 354.106 244.971 353.924C244.633 353.742 244.365 353.491 244.164 353.172C243.964 352.853 243.863 352.511 243.863 352.146C243.863 351.773 243.964 351.431 244.164 351.121C244.365 350.802 244.633 350.551 244.971 350.369C245.308 350.187 245.677 350.096 246.078 350.096C246.479 350.096 246.848 350.187 247.186 350.369C247.523 350.551 247.787 350.802 247.979 351.121C248.179 351.431 248.279 351.773 248.279 352.146C248.279 352.511 248.179 352.853 247.979 353.172C247.787 353.491 247.523 353.742 247.186 353.924C246.848 354.106 246.479 354.197 246.078 354.197ZM257.932 371.287C256.455 371.287 255.165 370.968 254.062 370.33C252.96 369.692 252.112 368.794 251.52 367.637C250.927 366.479 250.631 365.144 250.631 363.631C250.631 362.1 250.927 360.76 251.52 359.611C252.112 358.454 252.96 357.556 254.062 356.918C255.165 356.28 256.455 355.961 257.932 355.961C259.399 355.961 260.684 356.28 261.787 356.918C262.899 357.556 263.747 358.454 264.33 359.611C264.913 360.76 265.205 362.1 265.205 363.631C265.205 365.144 264.913 366.479 264.33 367.637C263.747 368.794 262.899 369.692 261.787 370.33C260.684 370.968 259.399 371.287 257.932 371.287ZM257.959 368.156C258.633 368.156 259.203 367.96 259.668 367.568C260.142 367.176 260.497 366.639 260.734 365.955C260.971 365.262 261.09 364.479 261.09 363.604C261.09 362.719 260.971 361.936 260.734 361.252C260.497 360.568 260.142 360.031 259.668 359.639C259.203 359.247 258.633 359.051 257.959 359.051C257.266 359.051 256.678 359.247 256.195 359.639C255.712 360.031 255.348 360.568 255.102 361.252C254.855 361.926 254.732 362.71 254.732 363.604C254.732 364.488 254.855 365.271 255.102 365.955C255.348 366.639 255.712 367.176 256.195 367.568C256.678 367.96 257.266 368.156 257.959 368.156ZM271.809 371H267.762V356.152H271.617V358.75H271.781C272.128 357.875 272.684 357.191 273.449 356.699C274.224 356.207 275.158 355.961 276.252 355.961C277.282 355.961 278.18 356.184 278.945 356.631C279.711 357.077 280.303 357.72 280.723 358.559C281.151 359.397 281.365 360.391 281.365 361.539V371H277.318V362.236C277.318 361.626 277.214 361.106 277.004 360.678C276.803 360.24 276.503 359.908 276.102 359.68C275.701 359.443 275.217 359.324 274.652 359.324C274.087 359.324 273.59 359.447 273.162 359.693C272.734 359.93 272.401 360.281 272.164 360.746C271.927 361.202 271.809 361.753 271.809 362.4V371Z" fill="#7062EF"/>
<path d="M1221 604C1223.86 604 1225.51 616.859 1229.57 621.333C1232.29 624.329 1241 627.111 1241 630C1241 632.889 1232.29 635.671 1229.57 638.667C1225.51 643.141 1223.86 656 1221 656C1218.14 656 1216.49 643.141 1212.43 638.667C1209.71 635.671 1201 632.889 1201 630C1201 627.111 1209.71 624.329 1212.43 621.333C1216.49 616.859 1218.14 604 1221 604Z" fill="url(#paint7_linear_3119_16685)"/>
<path d="M349 783C349.07 783 349.263 783.034 349.595 783.393C349.924 783.747 350.283 784.308 350.67 785.085C351.441 786.634 352.201 788.785 353.038 791.198C353.086 791.336 353.134 791.475 353.182 791.615C353.968 793.884 354.816 796.33 355.776 798.562C356.79 800.918 357.969 803.132 359.411 804.681C360.4 805.744 361.879 806.739 363.447 807.668C364.505 808.294 365.66 808.922 366.79 809.537C367.342 809.837 367.887 810.133 368.413 810.425C370.049 811.333 371.505 812.2 372.546 813.045C373.647 813.939 374 814.583 374 815C374 815.417 373.647 816.061 372.546 816.955C371.505 817.8 370.049 818.667 368.413 819.575C367.887 819.867 367.342 820.163 366.79 820.463C365.66 821.078 364.505 821.706 363.447 822.332C361.879 823.261 360.4 824.256 359.411 825.319C357.969 826.868 356.79 829.082 355.776 831.438C354.816 833.67 353.968 836.116 353.182 838.385C353.134 838.525 353.086 838.664 353.038 838.802C352.201 841.215 351.441 843.366 350.67 844.915C350.283 845.692 349.924 846.253 349.595 846.607C349.263 846.966 349.07 847 349 847C348.93 847 348.737 846.966 348.405 846.607C348.076 846.253 347.717 845.692 347.33 844.915C346.559 843.366 345.799 841.215 344.962 838.802C344.914 838.664 344.866 838.525 344.818 838.385C344.032 836.116 343.184 833.67 342.224 831.438C341.21 829.082 340.031 826.868 338.589 825.319C337.6 824.256 336.121 823.261 334.553 822.332C333.495 821.706 332.34 821.078 331.21 820.463C330.658 820.163 330.113 819.867 329.587 819.575C327.951 818.667 326.495 817.8 325.454 816.955C324.353 816.061 324 815.417 324 815C324 814.583 324.353 813.939 325.454 813.045C326.495 812.2 327.951 811.333 329.587 810.425C330.113 810.133 330.658 809.837 331.21 809.537C332.34 808.922 333.495 808.294 334.553 807.668C336.121 806.739 337.6 805.744 338.589 804.681C340.031 803.132 341.21 800.918 342.224 798.562C343.184 796.33 344.032 793.884 344.818 791.615C344.866 791.475 344.914 791.336 344.962 791.198C345.799 788.785 346.559 786.634 347.33 785.085C347.717 784.308 348.076 783.747 348.405 783.393C348.737 783.034 348.93 783 349 783Z" fill="#171717" stroke="#5885D9" stroke-width="2"/>
<defs>
<linearGradient id="paint0_linear_3119_16685" x1="249.284" y1="383.748" x2="988.209" y2="931.107" gradientUnits="userSpaceOnUse">
<stop offset="0.215" stop-color="#7062EF"/>
<stop offset="0.60347" stop-color="#39B1BE"/>
<stop offset="0.835" stop-color="#4ADD85"/>
</linearGradient>
<linearGradient id="paint1_linear_3119_16685" x1="1218.5" y1="362" x2="1220.5" y2="434" gradientUnits="userSpaceOnUse">
<stop stop-color="#4ADC86"/>
<stop offset="1" stop-color="#4ADD85"/>
</linearGradient>
<linearGradient id="paint2_linear_3119_16685" x1="1220.5" y1="381" x2="1220.5" y2="414" gradientUnits="userSpaceOnUse">
<stop stop-color="#4ADC86"/>
<stop offset="1" stop-color="#4ADD85"/>
</linearGradient>
<linearGradient id="paint3_linear_3119_16685" x1="1027.5" y1="162" x2="1140" y2="226" gradientUnits="userSpaceOnUse">
<stop stop-color="#44A2C7"/>
<stop offset="1" stop-color="#3FBFAB"/>
</linearGradient>
<linearGradient id="paint4_linear_3119_16685" x1="1047" y1="173" x2="1126.5" y2="211.5" gradientUnits="userSpaceOnUse">
<stop stop-color="#44A2C7"/>
<stop offset="1" stop-color="#3FBFAB"/>
</linearGradient>
<linearGradient id="paint5_linear_3119_16685" x1="584" y1="114" x2="839" y2="165" gradientUnits="userSpaceOnUse">
<stop stop-color="#7062EF"/>
<stop offset="1" stop-color="#5C80DC"/>
</linearGradient>
<linearGradient id="paint6_linear_3119_16685" x1="1173.5" y1="264.5" x2="1185.5" y2="283" gradientUnits="userSpaceOnUse">
<stop stop-color="#42C89F"/>
<stop offset="1" stop-color="#45CD99"/>
</linearGradient>
<linearGradient id="paint7_linear_3119_16685" x1="1224.5" y1="604" x2="1214" y2="655" gradientUnits="userSpaceOnUse">
<stop stop-color="#4ADD85"/>
<stop offset="1" stop-color="#4ADD85"/>
</linearGradient>
<clipPath id="clip0_3119_16685">
<rect width="74" height="74" fill="white" transform="translate(584 816)"/>
</clipPath>
</defs>
</svg>
