<svg width="173" height="73" viewBox="0 0 173 73" fill="none" xmlns="http://www.w3.org/2000/svg">
<rect x="1.5" y="1" width="170" height="71" rx="35.5" fill="#161616"/>
<rect x="1.5" y="1" width="170" height="71" rx="35.5" stroke="#345DFD" stroke-width="2"/>
<path d="M41.5742 29.5938V26.2031H57.7891V29.5938H51.7188V46H47.6445V29.5938H41.5742ZM60.332 46V26.2031H68.0977C72.6094 26.2031 75.1797 28.7461 75.1797 32.6562C75.1797 35.3633 73.9355 37.332 71.6797 38.2891L75.8906 46H71.3516L67.5781 38.9727H64.4336V46H60.332ZM64.4336 35.6367H67.332C69.7656 35.6367 70.9414 34.625 70.9414 32.6562C70.9414 30.6602 69.7656 29.5664 67.332 29.5664H64.4336V35.6367ZM78.0234 46V26.2031H91.3125V29.5938H82.125V34.4062H90.6289V37.7969H82.125V42.6094H91.3398V46H78.0234ZM111.027 26.2031V46H107.473L98.7773 33.4219H98.6133V46H94.5117V26.2031H98.1211L106.762 38.7812H106.953V26.2031H111.027ZM121.336 46H114.363V26.2031H121.418C127.379 26.2031 131.016 29.9219 131.016 36.0742C131.016 42.2812 127.379 46 121.336 46ZM118.465 42.4727H121.172C124.945 42.4727 126.914 40.5039 126.914 36.0742C126.914 31.6719 124.945 29.7305 121.199 29.7305H118.465V42.4727Z" fill="#345DFD"/>
</svg>
