<svg xmlns="http://www.w3.org/2000/svg" width="76" height="76" viewBox="0 0 76 76" fill="none">
  <path d="M38 14.3278L47.3443 3.73767L71.6393 16.8196L62.2951 27.7213M38 14.3278L62.2951 27.7213M38 14.3278L13.082 27.7213M38 14.3278L28.3443 3.73767L3.7377 17.1311L13.082 27.7213M62.2951 27.7213L38 41.7377M62.2951 27.7213L72.2623 39.2459L62.2951 45.0376M13.082 27.7213L38 41.7377M13.082 27.7213L3.11475 38.9344L13.082 44.7049M38 41.7377L49.2131 52.6393L62.2951 45.0376M38 41.7377L26.7869 52.6393L13.082 44.7049M38 41.7377V71.9508M38 71.9508L13.082 58.5573V44.7049M38 71.9508L62.2951 58.5573V45.0376" stroke="white" stroke-opacity="0.5" stroke-width="3" stroke-linejoin="round"/>
</svg>