<svg width="109" height="109" viewBox="0 0 109 109" fill="none" xmlns="http://www.w3.org/2000/svg">
<path d="M108.877 50.876C107.012 22.4663 83.3808 0 54.5 0C25.6192 0 1.98764 22.4663 0.122656 50.876H0V58.1241H0.122656C1.98764 86.5337 25.6192 109 54.5 109C83.3808 109 107.012 86.5337 108.877 58.1241H109V50.876H108.877ZM99.098 50.876H89.7647C89.7647 50.876 80.2642 50.4188 77.6827 39.0226C77.5545 38.2141 77.4151 37.414 77.2673 36.6223C77.2506 36.4941 77.2339 36.3686 77.22 36.2404H77.1949C75.2351 26.0206 71.717 17.3982 67.2371 11.5886C74.304 13.6766 80.7799 17.5041 86.1379 22.8621C93.7289 30.4531 98.2533 40.291 99.0952 50.876H99.098ZM53.7864 98.9642C50.0982 98.9642 45.8887 94.8662 42.5239 88.0001C38.6797 80.1526 36.3324 69.406 35.9561 58.1241H57.9791C61.7481 58.3554 71.6808 60.6414 68.5529 78.6361C67.5856 82.0511 66.4092 85.2096 65.0432 87.9973C61.6784 94.8635 57.4689 98.9614 53.7808 98.9614L53.7864 98.9642ZM53.7864 10.8721C57.4745 10.8721 61.684 14.9701 65.0488 21.8362C66.1025 23.9884 67.0448 26.3607 67.8644 28.9003C72.4111 51.7903 57.4299 50.7338 57.4299 50.7338V50.8732H35.9895C36.4523 39.8979 38.7745 29.4885 42.5239 21.8335C45.8887 14.9673 50.0982 10.8693 53.7864 10.8693V10.8721ZM22.8649 22.8621C27.7406 17.9864 33.5447 14.3763 39.8784 12.1935C33.6311 20.6849 29.3519 34.7295 28.7331 50.876H9.90478C10.7467 40.291 15.2739 30.4531 22.8621 22.8621H22.8649ZM9.90757 58.1241H28.708C29.1847 73.9304 33.1683 87.7966 39.0923 96.5277C33.0652 94.3226 27.5399 90.8129 22.8677 86.1379C15.2767 78.5469 10.7522 68.709 9.91036 58.1241H9.90757ZM86.1435 86.1379C80.989 91.2924 74.7974 95.0307 68.0428 97.1661C72.1407 91.3955 75.3578 83.208 77.2004 73.6099C77.2004 73.6099 77.2004 73.6071 77.2004 73.6043C77.3621 72.7568 77.5127 71.901 77.6548 71.0312C78.6473 66.7353 81.6357 58.5366 90.0518 58.1241H99.1064C98.2645 68.709 93.7372 78.5469 86.149 86.1379H86.1435Z" fill="#345DFD"/>
</svg>
