<svg width="459" height="512" viewBox="0 0 459 512" fill="none" xmlns="http://www.w3.org/2000/svg">
<g filter="url(#filter0_d_2721_11864)">
<ellipse cx="215.5" cy="117" rx="194.5" ry="117" fill="#7061F0"/>
<rect x="21.5" y="47.5" width="388" height="425" rx="19.5" fill="#7061F0" stroke="#7061F0"/>
<path d="M406 245H435C446.046 245 455 253.954 455 265V328C455 339.046 446.046 348 435 348H406V245Z" fill="#7061F0"/>
<mask id="mask0_2721_11864" style="mask-type:alpha" maskUnits="userSpaceOnUse" x="406" y="245" width="49" height="103">
<path d="M406 245H435C446.046 245 455 253.954 455 265V328C455 339.046 446.046 348 435 348H406V245Z" fill="#7061F0"/>
</mask>
<g mask="url(#mask0_2721_11864)">
<path d="M422 245H443V274.5C443 280.299 438.299 285 432.5 285V285C426.701 285 422 280.299 422 274.5V245Z" fill="#4D449B"/>
</g>
<path d="M4 311H428V484C428 495.046 419.046 504 408 504H24C12.9543 504 4 495.046 4 484V311Z" fill="#7061F0"/>
<path d="M409.474 271H21.0332L4 311H429L409.474 271Z" fill="#9388EB"/>
<path d="M72 111C72 105.477 76.4772 101 82 101H351C356.523 101 361 105.477 361 111V271H72V111Z" fill="#2E2E32"/>
<ellipse cx="47" cy="76.5" rx="9" ry="8.5" fill="#D6F84C"/>
<ellipse cx="47" cy="124.5" rx="9" ry="8.5" fill="#D6F84C"/>
<ellipse cx="47" cy="172.5" rx="9" ry="8.5" fill="#D6F84C"/>
<ellipse cx="47" cy="220.5" rx="9" ry="8.5" fill="#D6F84C"/>
<circle cx="96.5" cy="76.5" r="8.5" fill="#D6F84C"/>
<circle cx="144.5" cy="76.5" r="8.5" fill="#D6F84C"/>
<circle cx="192.5" cy="76.5" r="8.5" fill="#D6F84C"/>
<circle cx="240.5" cy="76.5" r="8.5" fill="#D6F84C"/>
<circle cx="288.5" cy="76.5" r="8.5" fill="#D6F84C"/>
<circle cx="336.5" cy="76.5" r="8.5" fill="#D6F84C"/>
<circle cx="385.5" cy="76.5" r="8.5" fill="#D6F84C"/>
<circle cx="385.5" cy="124.5" r="8.5" fill="#D6F84C"/>
<circle cx="385.5" cy="172.5" r="8.5" fill="#D6F84C"/>
<circle cx="385.5" cy="220.5" r="8.5" fill="#D6F84C"/>
<mask id="mask1_2721_11864" style="mask-type:alpha" maskUnits="userSpaceOnUse" x="72" y="101" width="289" height="170">
<path d="M72 111C72 105.477 76.4772 101 82 101H351C356.523 101 361 105.477 361 111V271H72V111Z" fill="#2E2E32"/>
</mask>
<g mask="url(#mask1_2721_11864)">
<rect x="72" y="100" width="28" height="174" fill="white"/>
<rect x="104" y="100" width="28" height="174" fill="white"/>
<rect x="136" y="100" width="30" height="174" fill="white"/>
<rect x="170" y="100" width="28" height="174" fill="white"/>
<rect x="202" y="100" width="28" height="174" fill="white"/>
<rect x="234" y="100" width="28" height="174" fill="white"/>
<rect x="266" y="100" width="29" height="174" fill="white"/>
<rect x="299" y="100" width="29" height="174" fill="white"/>
<rect x="332" y="100" width="29" height="174" fill="white"/>
</g>
</g>
<defs>
<filter id="filter0_d_2721_11864" x="0" y="0" width="459" height="512" filterUnits="userSpaceOnUse" color-interpolation-filters="sRGB">
<feFlood flood-opacity="0" result="BackgroundImageFix"/>
<feColorMatrix in="SourceAlpha" type="matrix" values="0 0 0 0 0 0 0 0 0 0 0 0 0 0 0 0 0 0 127 0" result="hardAlpha"/>
<feOffset dy="4"/>
<feGaussianBlur stdDeviation="2"/>
<feComposite in2="hardAlpha" operator="out"/>
<feColorMatrix type="matrix" values="0 0 0 0 0 0 0 0 0 0 0 0 0 0 0 0 0 0 0.25 0"/>
<feBlend mode="normal" in2="BackgroundImageFix" result="effect1_dropShadow_2721_11864"/>
<feBlend mode="normal" in="SourceGraphic" in2="effect1_dropShadow_2721_11864" result="shape"/>
</filter>
</defs>
</svg>
