<svg width="41" height="41" viewBox="0 0 41 41" fill="none" xmlns="http://www.w3.org/2000/svg">
<rect width="41" height="41" rx="10" fill="#49DF82"/>
<rect x="0.5" y="0.5" width="40" height="40" rx="9.5" stroke="white" stroke-opacity="0.1"/>
<path d="M25.25 17.3334C25.25 16.0736 24.7496 14.8654 23.8588 13.9746C22.968 13.0838 21.7598 12.5834 20.5 12.5834C19.2402 12.5834 18.032 13.0838 17.1412 13.9746C16.2504 14.8654 15.75 16.0736 15.75 17.3334C15.75 22.875 13.375 24.4584 13.375 24.4584H27.625C27.625 24.4584 25.25 22.875 25.25 17.3334Z" stroke="white" stroke-linecap="round" stroke-linejoin="round"/>
<path d="M21.87 27.625C21.7308 27.8649 21.5311 28.0641 21.2907 28.2025C21.0503 28.341 20.7778 28.4139 20.5004 28.4139C20.2231 28.4139 19.9505 28.341 19.7102 28.2025C19.4698 28.0641 19.27 27.8649 19.1309 27.625" stroke="white" stroke-linecap="round" stroke-linejoin="round"/>
</svg>
