<svg width="391" height="17" viewBox="0 0 391 17" fill="none" xmlns="http://www.w3.org/2000/svg">
<path d="M1 8.5H168" stroke="white" stroke-opacity="0.3" stroke-linecap="round"/>
<path d="M195.611 8.05078C195.611 11.209 193.711 13.1367 191.154 13.1367C188.57 13.1367 186.684 11.209 186.684 8.05078C186.684 4.87891 188.57 2.96484 191.154 2.96484C193.711 2.96484 195.611 4.87891 195.611 8.05078ZM194.121 8.05078C194.121 5.64453 192.85 4.3457 191.154 4.3457C189.445 4.3457 188.174 5.64453 188.174 8.05078C188.174 10.457 189.445 11.7559 191.154 11.7559C192.85 11.7559 194.121 10.457 194.121 8.05078ZM197.307 13V3.10156H200.834C203.131 3.10156 204.266 4.38672 204.266 6.20508C204.266 7.53809 203.664 8.5498 202.461 8.99414L204.648 13H202.939L200.93 9.26758H200.834H198.811V13H197.307ZM198.811 7.96875H200.684C202.146 7.96875 202.748 7.32617 202.748 6.20508C202.748 5.08398 202.146 4.38672 200.684 4.38672H198.811V7.96875Z" fill="white"/>
<path d="M223 8.5H390" stroke="white" stroke-opacity="0.3" stroke-linecap="round"/>
</svg>
