<svg width="41" height="41" viewBox="0 0 41 41" fill="none" xmlns="http://www.w3.org/2000/svg">
<rect width="41" height="41" rx="10" fill="#7061F0"/>
<rect x="0.5" y="0.5" width="40" height="40" rx="9.5" stroke="white" stroke-opacity="0.1"/>
<path d="M26.8337 27.625V26.0417C26.8337 25.2018 26.5 24.3964 25.9062 23.8025C25.3123 23.2086 24.5068 22.875 23.667 22.875H17.3337C16.4938 22.875 15.6884 23.2086 15.0945 23.8025C14.5006 24.3964 14.167 25.2018 14.167 26.0417V27.625" stroke="white" stroke-linecap="round" stroke-linejoin="round"/>
<path d="M20.4997 19.7083C22.2486 19.7083 23.6663 18.2906 23.6663 16.5417C23.6663 14.7928 22.2486 13.375 20.4997 13.375C18.7508 13.375 17.333 14.7928 17.333 16.5417C17.333 18.2906 18.7508 19.7083 20.4997 19.7083Z" stroke="white" stroke-linecap="round" stroke-linejoin="round"/>
</svg>
