<svg width="141" height="140" viewBox="0 0 141 140" fill="none" xmlns="http://www.w3.org/2000/svg">
<path d="M70.0886 0.705887C51.6686 0.814883 34.0433 8.22267 21.0761 21.3054C8.10897 34.3882 0.857916 52.0786 0.912414 70.4988C0.966912 88.919 8.32252 106.566 21.3669 119.572C34.4112 132.578 52.0801 139.881 70.5003 139.881C88.9206 139.881 106.589 132.578 119.634 119.572C132.678 106.566 140.034 88.919 140.088 70.4988C140.143 52.0786 132.892 34.3882 119.925 21.3054C106.957 8.22267 89.3321 0.814883 70.9121 0.705887H70.0886ZM70.0886 36.1176C78.3519 36.2264 86.2368 39.5993 92.0224 45.5002C97.808 51.4012 101.025 59.3511 100.97 67.6149C100.916 75.8788 97.5949 83.7857 91.7322 89.61C85.8694 95.4343 77.9409 98.7032 69.6768 98.7032C61.4128 98.7032 53.4842 95.4343 47.6214 89.61C41.7587 83.7857 38.4377 75.8788 38.3834 67.6149C38.329 59.3511 41.5456 51.4012 47.3312 45.5002C53.1168 39.5993 61.0017 36.2264 69.265 36.1176H70.0886ZM23.9709 118.676C31.3827 109.069 40.5788 104.265 51.5592 104.265H89.4415C100.422 104.265 109.618 109.069 117.03 118.676C104.478 130.61 87.82 137.265 70.5003 137.265C53.1807 137.265 36.5231 130.61 23.9709 118.676Z" fill="#DDDDDD"/>
<path d="M70.0886 36.1176C78.3519 36.2264 86.2368 39.5993 92.0224 45.5002C97.808 51.4012 101.025 59.3511 100.97 67.6149C100.916 75.8788 97.5949 83.7857 91.7322 89.61C85.8694 95.4343 77.9409 98.7032 69.6768 98.7032C61.4128 98.7032 53.4842 95.4343 47.6214 89.61C41.7587 83.7857 38.4377 75.8788 38.3834 67.6149C38.329 59.3511 41.5456 51.4012 47.3312 45.5002C53.1168 39.5993 61.0017 36.2264 69.265 36.1176H70.0886Z" fill="white"/>
<path d="M23.9709 118.676C31.3827 109.069 40.5788 104.265 51.5592 104.265H89.4415C100.422 104.265 109.618 109.069 117.03 118.676C104.478 130.61 87.82 137.265 70.5003 137.265C53.1807 137.265 36.5231 130.61 23.9709 118.676Z" fill="white"/>
</svg>
