<svg width="19" height="19" viewBox="0 0 19 19" fill="none" xmlns="http://www.w3.org/2000/svg">
<path d="M14.25 6.33325C14.25 5.07347 13.7496 3.86529 12.8588 2.97449C11.968 2.0837 10.7598 1.58325 9.5 1.58325C8.24022 1.58325 7.03204 2.0837 6.14124 2.97449C5.25045 3.86529 4.75 5.07347 4.75 6.33325C4.75 11.8749 2.375 13.4583 2.375 13.4583H16.625C16.625 13.4583 14.25 11.8749 14.25 6.33325Z" stroke="white" stroke-linecap="round" stroke-linejoin="round"/>
<path d="M10.8695 16.625C10.7304 16.8649 10.5306 17.0641 10.2902 17.2025C10.0499 17.341 9.77734 17.4139 9.49995 17.4139C9.22257 17.4139 8.95005 17.341 8.70969 17.2025C8.46933 17.0641 8.26955 16.8649 8.13037 16.625" stroke="white" stroke-linecap="round" stroke-linejoin="round"/>
</svg>
