<svg width="20" height="20" viewBox="0 0 20 20" fill="none" xmlns="http://www.w3.org/2000/svg">
<path d="M13.3333 7.61575C13.3354 8.41011 13.1498 9.19373 12.7917 9.90278C12.367 10.7524 11.7142 11.4671 10.9063 11.9667C10.0985 12.4663 9.16745 12.7311 8.21758 12.7315C7.42322 12.7336 6.6396 12.548 5.93055 12.1898L2.5 13.3333L3.64352 9.90278C3.28537 9.19373 3.09978 8.41011 3.10185 7.61575C3.10222 6.66588 3.36703 5.73488 3.86663 4.92701C4.36623 4.11915 5.08089 3.46633 5.93055 3.04168C6.6396 2.68354 7.42322 2.49795 8.21758 2.50002H8.51851C9.77298 2.56923 10.9578 3.09872 11.8462 3.98711C12.7346 4.8755 13.2641 6.06036 13.3333 7.31482V7.61575Z" stroke="white" stroke-linecap="round" stroke-linejoin="round"/>
<path d="M14.2442 10.0935C14.9247 10.3232 15.5278 10.7379 15.986 11.291C16.4441 11.8442 16.7392 12.514 16.8382 13.2253C16.9223 13.8201 16.8648 14.4263 16.6702 14.9945L17.8832 17.4451L15.195 16.9452C14.7012 17.2871 14.1336 17.5075 13.5384 17.5885C12.8269 17.687 12.1021 17.5854 11.4451 17.2952C10.7882 17.005 10.2249 16.5376 9.81858 15.9453C9.47665 15.4515 9.25621 14.8839 9.1752 14.2887L9.14392 14.0633" stroke="white" stroke-linecap="round" stroke-linejoin="round"/>
</svg>
