<svg width="29" height="29" viewBox="0 0 29 29" fill="none" xmlns="http://www.w3.org/2000/svg">
<path fill-rule="evenodd" clip-rule="evenodd" d="M6.2967 7.6912C7.5318 6.53975 9.06613 5.75001 10.4985 5.75H18.6924C20.1248 5.75 21.6591 6.53973 22.8942 7.69119C24.1372 8.84996 25.1467 10.4377 25.4859 12.1463C26.1171 15.3258 26.4409 18.0187 26.4409 19.1277C26.4409 19.7566 26.2159 20.5867 25.8108 21.3271C25.4059 22.0672 24.777 22.7971 23.9102 23.1216C22.3242 23.7154 20.7894 22.9765 19.8879 21.9203C19.445 21.4014 18.8706 20.4293 18.4243 19.6273C18.1967 19.2182 17.9949 18.8395 17.85 18.5632C17.8157 18.4977 17.7845 18.4379 17.7569 18.3848H14.5955H11.434C11.4064 18.4379 11.3752 18.4977 11.3409 18.5632C11.196 18.8395 10.9942 19.2182 10.7666 19.6273C10.3203 20.4293 9.7459 21.4014 9.30302 21.9203C8.38747 22.9928 7.10637 23.5264 5.64254 23.1365C4.7047 22.8868 3.98506 22.1527 3.51215 21.4C3.04028 20.6491 2.74981 19.778 2.75 19.1275C2.75032 18.0187 3.07375 15.3259 3.70503 12.1463C4.04426 10.4377 5.05374 8.84997 6.2967 7.6912ZM10.6825 17.6592C10.7676 17.4909 10.9402 17.3848 11.1288 17.3848H14.5955H18.0621C18.2507 17.3848 18.4233 17.4909 18.5084 17.6592L18.5084 17.6593L18.5085 17.6596L18.5092 17.6609L18.512 17.6665L18.5235 17.6891L18.5684 17.7768C18.6076 17.8531 18.6647 17.9634 18.7357 18.0989C18.8779 18.3701 19.0756 18.7411 19.2982 19.1411C19.7523 19.9572 20.281 20.8405 20.6485 21.271C21.3677 22.1136 22.4841 22.5877 23.5595 22.1851C24.1174 21.9763 24.5915 21.4722 24.9335 20.8472C25.2752 20.2225 25.4409 19.5564 25.4409 19.1277C25.4409 18.1213 25.1338 15.5078 24.505 12.341C24.2143 10.8765 23.333 9.46741 22.2123 8.42263C21.0838 7.37054 19.7816 6.75 18.6924 6.75H10.4985C9.40932 6.75001 8.10713 7.37055 6.9786 8.42265C5.85792 9.46743 4.97665 10.8765 4.68588 12.341C4.05717 15.5077 3.75029 18.1213 3.75 19.1278C3.74988 19.5351 3.95338 20.2227 4.35888 20.868C4.76333 21.5117 5.30445 22.0116 5.89989 22.1702C6.93606 22.4462 7.8372 22.0972 8.54243 21.271C8.90994 20.8405 9.43858 19.9572 9.89275 19.1411C10.1153 18.7411 10.313 18.3701 10.4552 18.0989C10.5263 17.9634 10.5833 17.8531 10.6225 17.7768L10.6674 17.6891L10.6789 17.6665L10.6817 17.6609L10.6824 17.6596L10.6825 17.6593L10.6825 17.6592L10.6825 17.6592ZM8.85909 12.3591C8.85909 12.0829 9.08295 11.8591 9.35909 11.8591H10.6045V10.6136C10.6045 10.3375 10.8284 10.1136 11.1045 10.1136C11.3807 10.1136 11.6045 10.3375 11.6045 10.6136V11.8591H12.85C13.1261 11.8591 13.35 12.0829 13.35 12.3591C13.35 12.6352 13.1261 12.8591 12.85 12.8591H11.6045V14.1045C11.6045 14.3807 11.3807 14.6045 11.1045 14.6045C10.8284 14.6045 10.6045 14.3807 10.6045 14.1045V12.8591H9.35909C9.08295 12.8591 8.85909 12.6352 8.85909 12.3591ZM17.5408 12.0863C17.5408 12.4177 17.2722 12.6863 16.9408 12.6863C16.6094 12.6863 16.3408 12.4177 16.3408 12.0863C16.3408 11.755 16.6094 11.4863 16.9408 11.4863C17.2722 11.4863 17.5408 11.755 17.5408 12.0863ZM20.4318 12.6863C20.7632 12.6863 21.0318 12.4177 21.0318 12.0863C21.0318 11.755 20.7632 11.4863 20.4318 11.4863C20.1004 11.4863 19.8318 11.755 19.8318 12.0863C19.8318 12.4177 20.1004 12.6863 20.4318 12.6863ZM19.2864 13.8318C19.2864 14.1632 19.0178 14.4318 18.6864 14.4318C18.3551 14.4318 18.0864 14.1632 18.0864 13.8318C18.0864 13.5004 18.3551 13.2318 18.6864 13.2318C19.0178 13.2318 19.2864 13.5004 19.2864 13.8318ZM18.6864 10.9409C19.0178 10.9409 19.2864 10.6723 19.2864 10.3409C19.2864 10.0095 19.0178 9.74091 18.6864 9.74091C18.3551 9.74091 18.0864 10.0095 18.0864 10.3409C18.0864 10.6723 18.3551 10.9409 18.6864 10.9409Z" fill="white" fill-opacity="0.6"/>
</svg>
