<svg width="25" height="19" viewBox="0 0 25 19" fill="none" xmlns="http://www.w3.org/2000/svg">
<path fill-rule="evenodd" clip-rule="evenodd" d="M4.2967 2.6912C5.5318 1.53975 7.06613 0.75001 8.49848 0.75H16.6924C18.1248 0.75 19.6591 1.53973 20.8942 2.69119C22.1372 3.84996 23.1467 5.43769 23.4859 7.1463C24.1171 10.3258 24.4409 13.0187 24.4409 14.1277C24.4409 14.7566 24.2159 15.5867 23.8108 16.3271C23.4059 17.0672 22.777 17.7971 21.9102 18.1216C20.3242 18.7154 18.7894 17.9765 17.8879 16.9203C17.445 16.4014 16.8706 15.4293 16.4243 14.6273C16.1967 14.2182 15.9949 13.8395 15.85 13.5632C15.8157 13.4977 15.7845 13.4379 15.7569 13.3848H12.5955H9.43399C9.40641 13.4379 9.37523 13.4977 9.34088 13.5632C9.19604 13.8395 8.99423 14.2182 8.76656 14.6273C8.3203 15.4293 7.7459 16.4014 7.30302 16.9203C6.38747 17.9928 5.10637 18.5264 3.64254 18.1365C2.7047 17.8868 1.98506 17.1527 1.51215 16.4C1.04028 15.6491 0.749811 14.778 0.75 14.1275C0.750323 13.0187 1.07375 10.3259 1.70503 7.1463C2.04426 5.4377 3.05374 3.84997 4.2967 2.6912ZM8.68255 12.6592C8.76762 12.4909 8.94018 12.3848 9.12879 12.3848H12.5955H16.0621C16.2507 12.3848 16.4233 12.4909 16.5084 12.6592L16.5084 12.6593L16.5085 12.6596L16.5092 12.6609L16.512 12.6665L16.5235 12.6891L16.5684 12.7768C16.6076 12.8531 16.6647 12.9634 16.7357 13.0989C16.8779 13.3701 17.0756 13.7411 17.2982 14.1411C17.7523 14.9572 18.281 15.8405 18.6485 16.271C19.3677 17.1136 20.4841 17.5877 21.5595 17.1851C22.1174 16.9763 22.5915 16.4722 22.9335 15.8472C23.2752 15.2225 23.4409 14.5564 23.4409 14.1277C23.4409 13.1213 23.1338 10.5078 22.505 7.34104C22.2143 5.87652 21.333 4.46741 20.2123 3.42263C19.0838 2.37054 17.7816 1.75 16.6924 1.75H8.49849C7.40932 1.75001 6.10713 2.37055 4.9786 3.42265C3.85792 4.46743 2.97665 5.87653 2.68588 7.34104C2.05717 10.5077 1.75029 13.1213 1.75 14.1278C1.74988 14.5351 1.95338 15.2227 2.35888 15.868C2.76333 16.5117 3.30445 17.0116 3.89989 17.1702C4.93606 17.4462 5.8372 17.0972 6.54243 16.271C6.90994 15.8405 7.43858 14.9572 7.89275 14.1411C8.11529 13.7411 8.31305 13.3701 8.45522 13.0989C8.52626 12.9634 8.5833 12.8531 8.62249 12.7768L8.66738 12.6891L8.67886 12.6665L8.6817 12.6609L8.68237 12.6596L8.68252 12.6593L8.68254 12.6592L8.68255 12.6592ZM6.85909 7.35908C6.85909 7.08294 7.08295 6.85908 7.35909 6.85908H8.60455V5.61363C8.60455 5.33749 8.8284 5.11363 9.10455 5.11363C9.38069 5.11363 9.60455 5.33749 9.60455 5.61363V6.85908H10.85C11.1261 6.85908 11.35 7.08294 11.35 7.35908C11.35 7.63523 11.1261 7.85908 10.85 7.85908H9.60455V9.10454C9.60455 9.38068 9.38069 9.60454 9.10455 9.60454C8.8284 9.60454 8.60455 9.38068 8.60455 9.10454V7.85908H7.35909C7.08295 7.85908 6.85909 7.63523 6.85909 7.35908ZM15.5408 7.08633C15.5408 7.4177 15.2722 7.68633 14.9408 7.68633C14.6094 7.68633 14.3408 7.4177 14.3408 7.08633C14.3408 6.75496 14.6094 6.48633 14.9408 6.48633C15.2722 6.48633 15.5408 6.75496 15.5408 7.08633ZM18.4318 7.68633C18.7632 7.68633 19.0318 7.4177 19.0318 7.08633C19.0318 6.75496 18.7632 6.48633 18.4318 6.48633C18.1004 6.48633 17.8318 6.75496 17.8318 7.08633C17.8318 7.4177 18.1004 7.68633 18.4318 7.68633ZM17.2864 8.83181C17.2864 9.16318 17.0178 9.43181 16.6864 9.43181C16.3551 9.43181 16.0864 9.16318 16.0864 8.83181C16.0864 8.50044 16.3551 8.23181 16.6864 8.23181C17.0178 8.23181 17.2864 8.50044 17.2864 8.83181ZM16.6864 5.94091C17.0178 5.94091 17.2864 5.67228 17.2864 5.34091C17.2864 5.00953 17.0178 4.74091 16.6864 4.74091C16.3551 4.74091 16.0864 5.00953 16.0864 5.34091C16.0864 5.67228 16.3551 5.94091 16.6864 5.94091Z" fill="white"/>
</svg>
