<svg width="30" height="29" viewBox="0 0 30 29" fill="none" xmlns="http://www.w3.org/2000/svg">
<path d="M29.0977 13.5358C28.6015 5.97726 22.3143 0 14.6304 0C6.94648 0 0.659194 5.97726 0.163004 13.5358H0.130371V15.4642H0.163004C0.659194 23.0227 6.94648 29 14.6304 29C22.3143 29 28.6015 23.0227 29.0977 15.4642H29.1304V13.5358H29.0977ZM26.4959 13.5358H24.0127C24.0127 13.5358 21.4851 13.4142 20.7983 10.3821C20.7641 10.1671 20.727 9.95419 20.6877 9.74356C20.6833 9.70944 20.6788 9.67606 20.6751 9.64194H20.6685C20.147 6.92292 19.211 4.62887 18.0191 3.0832C19.8993 3.63872 21.6223 4.65706 23.0478 6.08258C25.0674 8.1022 26.2712 10.7196 26.4952 13.5358H26.4959ZM14.4405 26.3299C13.4592 26.3299 12.3393 25.2396 11.4441 23.4129C10.4213 21.325 9.79679 18.4658 9.69666 15.4642H15.556C16.5588 15.5258 19.2014 16.1339 18.3692 20.9215C18.1119 21.8301 17.7989 22.6704 17.4354 23.4121C16.5402 25.2389 15.4203 26.3292 14.439 26.3292L14.4405 26.3299ZM14.4405 2.89258C15.4218 2.89258 16.5417 3.98286 17.4369 5.80964C17.7173 6.38222 17.968 7.0134 18.186 7.68908C19.3957 13.7791 15.4099 13.498 15.4099 13.498V13.5351H9.70556C9.82868 10.615 10.4465 7.84558 11.4441 5.8089C12.3393 3.98212 13.4592 2.89184 14.4405 2.89184V2.89258ZM6.2137 6.08258C7.51091 4.78537 9.0551 3.82488 10.7402 3.24414C9.07809 5.50332 7.9396 9.23995 7.77495 13.5358H2.76559C2.98958 10.7196 4.19408 8.1022 6.21295 6.08258H6.2137ZM2.76633 15.4642H7.76827C7.8951 19.6696 8.95497 23.3587 10.5311 25.6817C8.92753 25.095 7.45751 24.1612 6.21444 22.9174C4.19482 20.8978 2.99106 18.2804 2.76707 15.4642H2.76633ZM23.0493 22.9174C21.6779 24.2888 20.0306 25.2834 18.2335 25.8515C19.3238 24.3162 20.1797 22.1379 20.6699 19.5843C20.6699 19.5843 20.6699 19.5835 20.6699 19.5828C20.713 19.3573 20.753 19.1296 20.7908 18.8982C21.0549 17.7553 21.85 15.574 24.0891 15.4642H26.4981C26.2741 18.2804 25.0696 20.8978 23.0508 22.9174H23.0493Z" fill="white"/>
</svg>
