<svg width="19" height="19" viewBox="0 0 19 19" fill="none" xmlns="http://www.w3.org/2000/svg">
<g clip-path="url(#clip0_641_48528)">
<path d="M9.5 11.875C10.8117 11.875 11.875 10.8117 11.875 9.5C11.875 8.18832 10.8117 7.125 9.5 7.125C8.18832 7.125 7.125 8.18832 7.125 9.5C7.125 10.8117 8.18832 11.875 9.5 11.875Z" stroke="white" stroke-linecap="round" stroke-linejoin="round"/>
<path d="M15.3582 11.8751C15.2528 12.1139 15.2214 12.3787 15.2679 12.6355C15.3145 12.8924 15.4369 13.1293 15.6194 13.3159L15.6669 13.3634C15.8141 13.5105 15.9309 13.6851 16.0106 13.8773C16.0903 14.0695 16.1313 14.2755 16.1313 14.4836C16.1313 14.6917 16.0903 14.8977 16.0106 15.0899C15.9309 15.2822 15.8141 15.4568 15.6669 15.6038C15.5199 15.751 15.3452 15.8678 15.153 15.9475C14.9608 16.0272 14.7548 16.0682 14.5467 16.0682C14.3386 16.0682 14.1326 16.0272 13.9404 15.9475C13.7482 15.8678 13.5736 15.751 13.4265 15.6038L13.379 15.5563C13.1924 15.3738 12.9554 15.2514 12.6986 15.2048C12.4418 15.1583 12.1769 15.1897 11.9382 15.2951C11.704 15.3954 11.5043 15.5621 11.3637 15.7745C11.223 15.9869 11.1475 16.2357 11.1465 16.4905V16.6251C11.1465 17.045 10.9797 17.4477 10.6828 17.7447C10.3858 18.0416 9.9831 18.2084 9.56317 18.2084C9.14324 18.2084 8.74052 18.0416 8.44358 17.7447C8.14665 17.4477 7.97984 17.045 7.97984 16.6251V16.5538C7.97371 16.2918 7.88889 16.0377 7.73641 15.8245C7.58393 15.6113 7.37084 15.4489 7.12484 15.3584C6.88606 15.253 6.62118 15.2216 6.36437 15.2682C6.10756 15.3147 5.87058 15.4372 5.684 15.6197L5.6365 15.6672C5.48945 15.8144 5.31483 15.9312 5.12262 16.0108C4.9304 16.0905 4.72437 16.1315 4.5163 16.1315C4.30822 16.1315 4.10219 16.0905 3.90997 16.0108C3.71776 15.9312 3.54314 15.8144 3.39609 15.6672C3.24887 15.5201 3.13209 15.3455 3.05241 15.1533C2.97273 14.9611 2.93172 14.755 2.93172 14.547C2.93172 14.3389 2.97273 14.1328 3.05241 13.9406C3.13209 13.7484 3.24887 13.5738 3.39609 13.4267L3.44359 13.3792C3.6261 13.1927 3.74853 12.9557 3.79509 12.6989C3.84166 12.4421 3.81022 12.1772 3.70484 11.9384C3.60448 11.7043 3.43785 11.5046 3.22546 11.3639C3.01306 11.2232 2.76417 11.1478 2.50942 11.1467H2.37484C1.95491 11.1467 1.55218 10.9799 1.25525 10.683C0.958319 10.3861 0.791504 9.98334 0.791504 9.56341C0.791504 9.14349 0.958319 8.74076 1.25525 8.44383C1.55218 8.1469 1.95491 7.98008 2.37484 7.98008H2.44609C2.70812 7.97395 2.96226 7.88913 3.17545 7.73665C3.38864 7.58417 3.55103 7.37108 3.6415 7.12508C3.74689 6.8863 3.77832 6.62143 3.73176 6.36462C3.68519 6.1078 3.56276 5.87083 3.38025 5.68425L3.33275 5.63675C3.18554 5.4897 3.06876 5.31508 2.98908 5.12286C2.9094 4.93065 2.86838 4.72461 2.86838 4.51654C2.86838 4.30846 2.9094 4.10243 2.98908 3.91022C3.06876 3.718 3.18554 3.54338 3.33275 3.39633C3.4798 3.24912 3.65443 3.13233 3.84664 3.05265C4.03885 2.97297 4.24489 2.93196 4.45296 2.93196C4.66104 2.93196 4.86707 2.97297 5.05928 3.05265C5.2515 3.13233 5.42612 3.24912 5.57317 3.39633L5.62067 3.44383C5.80725 3.62634 6.04422 3.74877 6.30104 3.79533C6.55785 3.8419 6.82272 3.81046 7.0615 3.70508H7.12484C7.35899 3.60473 7.55868 3.4381 7.69934 3.2257C7.84 3.0133 7.91549 2.76441 7.9165 2.50966V2.37508C7.9165 1.95516 8.08332 1.55243 8.38025 1.2555C8.67718 0.958563 9.07991 0.791748 9.49984 0.791748C9.91976 0.791748 10.3225 0.958563 10.6194 1.2555C10.9164 1.55243 11.0832 1.95516 11.0832 2.37508V2.44633C11.0842 2.70108 11.1597 2.94997 11.3003 3.16237C11.441 3.37476 11.6407 3.54139 11.8748 3.64175C12.1136 3.74713 12.3785 3.77857 12.6353 3.732C12.8921 3.68544 13.1291 3.56301 13.3157 3.3805L13.3632 3.333C13.5102 3.18579 13.6848 3.069 13.8771 2.98932C14.0693 2.90964 14.2753 2.86863 14.4834 2.86863C14.6915 2.86863 14.8975 2.90964 15.0897 2.98932C15.2819 3.069 15.4565 3.18579 15.6036 3.333C15.7508 3.48005 15.8676 3.65467 15.9473 3.84688C16.0269 4.0391 16.068 4.24513 16.068 4.45321C16.068 4.66128 16.0269 4.86731 15.9473 5.05953C15.8676 5.25174 15.7508 5.42637 15.6036 5.57341L15.5561 5.62091C15.3736 5.80749 15.2511 6.04447 15.2046 6.30128C15.158 6.55809 15.1895 6.82297 15.2948 7.06175V7.12508C15.3952 7.35923 15.5618 7.55893 15.7742 7.69959C15.9866 7.84025 16.2355 7.91573 16.4903 7.91675H16.6248C17.0448 7.91675 17.4475 8.08356 17.7444 8.3805C18.0414 8.67743 18.2082 9.08015 18.2082 9.50008C18.2082 9.92001 18.0414 10.3227 17.7444 10.6197C17.4475 10.9166 17.0448 11.0834 16.6248 11.0834H16.5536C16.2988 11.0844 16.0499 11.1599 15.8376 11.3006C15.6252 11.4412 15.4585 11.6409 15.3582 11.8751Z" stroke="white" stroke-linecap="round" stroke-linejoin="round"/>
</g>
<defs>
<clipPath id="clip0_641_48528">
<rect width="19" height="19" fill="white"/>
</clipPath>
</defs>
</svg>
