<svg width="30" height="30" viewBox="0 0 30 30" fill="none" xmlns="http://www.w3.org/2000/svg">
<rect width="30" height="30" rx="10" fill="white"/>
<path d="M24.6844 14.6251C24.3552 9.61161 20.185 5.64697 15.0884 5.64697C9.99174 5.64697 5.82146 9.61161 5.49235 14.6251H5.4707V15.9042H5.49235C5.82146 20.9176 9.99174 24.8823 15.0884 24.8823C20.185 24.8823 24.3552 20.9176 24.6844 15.9042H24.706V14.6251H24.6844ZM22.9586 14.6251H21.3115C21.3115 14.6251 19.635 14.5444 19.1794 12.5333C19.1568 12.3906 19.1322 12.2495 19.1061 12.1097C19.1032 12.0871 19.1002 12.065 19.0978 12.0423H19.0933C18.7475 10.2388 18.1266 8.71724 17.3361 7.69201C18.5832 8.06049 19.726 8.73593 20.6715 9.68146C22.0111 11.021 22.8095 12.7571 22.9581 14.6251H22.9586ZM14.9624 23.1112C14.3116 23.1112 13.5687 22.3881 12.9749 21.1764C12.2965 19.7916 11.8823 17.8951 11.8159 15.9042H15.7023C16.3674 15.945 18.1202 16.3484 17.5683 19.5239C17.3976 20.1266 17.19 20.684 16.9489 21.1759C16.3551 22.3876 15.6123 23.1108 14.9614 23.1108L14.9624 23.1112ZM14.9624 7.56558C15.6133 7.56558 16.3561 8.28875 16.9499 9.50043C17.1359 9.88021 17.3021 10.2989 17.4468 10.747C18.2491 14.7864 15.6054 14.6 15.6054 14.6V14.6246H11.8218C11.9035 12.6878 12.3133 10.8508 12.9749 9.49994C13.5687 8.28826 14.3116 7.56509 14.9624 7.56509V7.56558ZM9.50569 9.68146C10.3661 8.82104 11.3904 8.18396 12.5081 7.79877C11.4056 9.29725 10.6505 11.7757 10.5412 14.6251H7.21861C7.36718 12.7571 8.1661 11.021 9.50519 9.68146H9.50569ZM7.2191 15.9042H10.5368C10.6209 18.6935 11.3239 21.1405 12.3693 22.6813C11.3057 22.2921 10.3307 21.6728 9.50618 20.8478C8.1666 19.5082 7.36816 17.7721 7.21959 15.9042H7.2191ZM20.6725 20.8478C19.7629 21.7574 18.6702 22.4171 17.4782 22.7939C18.2014 21.7756 18.7691 20.3307 19.0943 18.6369C19.0943 18.6369 19.0943 18.6365 19.0943 18.636C19.1228 18.4864 19.1494 18.3354 19.1745 18.1819C19.3496 17.4238 19.877 15.977 21.3622 15.9042H22.9601C22.8115 17.7721 22.0126 19.5082 20.6735 20.8478H20.6725Z" fill="#345DFD"/>
</svg>
