<svg width="18" height="16" viewBox="0 0 18 16" fill="none" xmlns="http://www.w3.org/2000/svg">
<path fill-rule="evenodd" clip-rule="evenodd" d="M2.79665 2.67912C3.6993 1.80779 4.8387 1.19141 5.92449 1.19141H11.8258C12.9116 1.19141 14.051 1.80778 14.9537 2.67911C15.8654 3.5592 16.6068 4.76539 16.8563 6.06684C17.3113 8.4393 17.5462 10.4562 17.5462 11.2945C17.5462 11.7854 17.3779 12.423 17.0786 12.9893C16.7806 13.5535 16.3078 14.1303 15.6381 14.3899C14.4145 14.8642 13.2461 14.2672 12.5749 13.453C12.2465 13.0547 11.8273 12.3186 11.507 11.7225C11.3424 11.4163 11.1966 11.133 11.092 10.9264L11.0623 10.8677H8.87515H6.688L6.65834 10.9264C6.55372 11.133 6.4079 11.4163 6.24333 11.7225C5.92299 12.3186 5.50376 13.0547 5.17543 13.453C4.48962 14.2849 3.51028 14.7155 2.38697 14.4057C1.66001 14.2052 1.11799 13.6229 0.77036 13.0501C0.422374 12.4766 0.203958 11.806 0.204102 11.2944C0.204337 10.4562 0.439034 8.43938 0.893969 6.06683C1.14352 4.76539 1.88492 3.55921 2.79665 2.67912ZM5.92911 10.1483C6.01294 9.9766 6.18734 9.86766 6.37844 9.86766H8.87515H11.3719C11.563 9.86766 11.7374 9.97659 11.8212 10.1483L11.8212 10.1483L11.3719 10.3677L11.8212 10.1483L11.8212 10.1484L11.8213 10.1486L11.8218 10.1495L11.8238 10.1536L11.8319 10.1703L11.8641 10.2353C11.8922 10.2919 11.9331 10.3739 11.9841 10.4746C12.0862 10.6762 12.2281 10.952 12.3878 11.2491C12.716 11.8597 13.0912 12.5072 13.3465 12.8169C13.8426 13.4187 14.5835 13.7262 15.2767 13.4575C15.6331 13.3193 15.9547 12.976 16.1945 12.5221C16.4331 12.0705 16.5462 11.5924 16.5462 11.2945C16.5462 10.5553 16.3268 8.61521 15.8742 6.25515C15.6701 5.19034 15.0497 4.16173 14.2592 3.39859C13.4595 2.6267 12.556 2.19141 11.8258 2.19141H5.9245C5.19428 2.19141 4.2908 2.62671 3.49116 3.3986C2.70058 4.16174 2.08025 5.19035 1.87608 6.25515C1.42356 8.61509 1.20431 10.5553 1.2041 11.2947C1.20402 11.5717 1.34137 12.0635 1.62526 12.5313C1.90951 12.9997 2.2755 13.3376 2.65281 13.4417C3.33001 13.6284 3.92234 13.4009 4.40383 12.8169C4.65914 12.5072 5.03432 11.8597 5.36248 11.2491C5.52216 10.952 5.66411 10.6762 5.76619 10.4746C5.81718 10.3739 5.85812 10.2919 5.88621 10.2353L5.91836 10.1703L5.92654 10.1536L5.92854 10.1495L5.92901 10.1486L5.92911 10.1484L5.92911 10.1483ZM4.74358 6.1076C4.74358 5.83146 4.96743 5.6076 5.24358 5.6076H5.65147V5.22436C5.65147 4.94822 5.87533 4.72436 6.15147 4.72436C6.42761 4.72436 6.65147 4.94822 6.65147 5.22436V5.6076H7.96726C8.2434 5.6076 8.46726 5.83146 8.46726 6.1076C8.46726 6.38374 8.2434 6.6076 7.96726 6.6076H6.65147V7.87408C6.65147 8.15022 6.42761 8.37408 6.15147 8.37408C5.87533 8.37408 5.65147 8.15022 5.65147 7.87408V6.6076H5.24358C4.96743 6.6076 4.74358 6.38374 4.74358 6.1076ZM10.6909 6.54922C10.6909 6.79312 10.4877 6.99084 10.237 6.99084C9.98629 6.99084 9.78305 6.79312 9.78305 6.54922C9.78305 6.30532 9.98629 6.1076 10.237 6.1076C10.4877 6.1076 10.6909 6.30532 10.6909 6.54922ZM12.9607 6.99084C13.2114 6.99084 13.4146 6.79312 13.4146 6.54922C13.4146 6.30532 13.2114 6.1076 12.9607 6.1076C12.71 6.1076 12.5067 6.30532 12.5067 6.54922C12.5067 6.79312 12.71 6.99084 12.9607 6.99084ZM12.5067 7.43246C12.5067 7.67636 12.3035 7.87408 12.0528 7.87408C11.8021 7.87408 11.5988 7.67636 11.5988 7.43246C11.5988 7.18856 11.8021 6.99084 12.0528 6.99084C12.3035 6.99084 12.5067 7.18856 12.5067 7.43246ZM12.0528 5.22436C12.3035 5.22436 12.5067 5.02664 12.5067 4.78274C12.5067 4.53884 12.3035 4.34112 12.0528 4.34112C11.8021 4.34112 11.5988 4.53884 11.5988 4.78274C11.5988 5.02664 11.8021 5.22436 12.0528 5.22436Z" fill="white" fill-opacity="0.6"/>
</svg>
