<svg width="22" height="22" viewBox="0 0 22 22" fill="none" xmlns="http://www.w3.org/2000/svg">
<g clip-path="url(#clip0_2059_10459)">
<path d="M11 13.75C12.5188 13.75 13.75 12.5188 13.75 11C13.75 9.48122 12.5188 8.25 11 8.25C9.48122 8.25 8.25 9.48122 8.25 11C8.25 12.5188 9.48122 13.75 11 13.75Z" stroke="white" stroke-linecap="round" stroke-linejoin="round"/>
<path d="M17.7834 13.7498C17.6614 14.0263 17.625 14.333 17.6789 14.6304C17.7328 14.9277 17.8746 15.2021 18.0859 15.4182L18.1409 15.4732C18.3114 15.6434 18.4466 15.8456 18.5389 16.0682C18.6311 16.2908 18.6786 16.5293 18.6786 16.7703C18.6786 17.0112 18.6311 17.2497 18.5389 17.4723C18.4466 17.6949 18.3114 17.8971 18.1409 18.0673C17.9706 18.2378 17.7685 18.373 17.5459 18.4653C17.3233 18.5575 17.0848 18.605 16.8438 18.605C16.6029 18.605 16.3643 18.5575 16.1418 18.4653C15.9192 18.373 15.717 18.2378 15.5467 18.0673L15.4917 18.0123C15.2757 17.801 15.0013 17.6592 14.704 17.6053C14.4066 17.5514 14.0999 17.5878 13.8234 17.7098C13.5523 17.826 13.3211 18.019 13.1582 18.2649C12.9953 18.5108 12.9079 18.799 12.9067 19.094V19.2498C12.9067 19.7361 12.7136 20.2024 12.3698 20.5462C12.026 20.89 11.5596 21.0832 11.0734 21.0832C10.5872 21.0832 10.1209 20.89 9.77705 20.5462C9.43324 20.2024 9.24008 19.7361 9.24008 19.2498V19.1673C9.23298 18.8639 9.13477 18.5697 8.95822 18.3228C8.78166 18.076 8.53492 17.8879 8.25008 17.7832C7.9736 17.6611 7.6669 17.6247 7.36954 17.6787C7.07218 17.7326 6.79779 17.8743 6.58175 18.0857L6.52675 18.1407C6.35648 18.3111 6.15428 18.4464 5.93172 18.5386C5.70916 18.6309 5.47059 18.6784 5.22966 18.6784C4.98874 18.6784 4.75017 18.6309 4.52761 18.5386C4.30504 18.4464 4.10285 18.3111 3.93258 18.1407C3.76212 17.9704 3.6269 17.7682 3.53464 17.5456C3.44238 17.3231 3.39489 17.0845 3.39489 16.8436C3.39489 16.6027 3.44238 16.3641 3.53464 16.1415C3.6269 15.919 3.76212 15.7168 3.93258 15.5465L3.98758 15.4915C4.19891 15.2755 4.34067 15.0011 4.39459 14.7037C4.4485 14.4063 4.4121 14.0997 4.29008 13.8232C4.17388 13.552 3.98094 13.3208 3.73501 13.158C3.48908 12.9951 3.20089 12.9077 2.90591 12.9065H2.75008C2.26385 12.9065 1.79754 12.7133 1.45372 12.3695C1.1099 12.0257 0.916748 11.5594 0.916748 11.0732C0.916748 10.5869 1.1099 10.1206 1.45372 9.77681C1.79754 9.43299 2.26385 9.23984 2.75008 9.23984H2.83258C3.13599 9.23274 3.43025 9.13453 3.67711 8.95797C3.92396 8.78141 4.11199 8.53468 4.21675 8.24984C4.33877 7.97336 4.37517 7.66666 4.32125 7.3693C4.26733 7.07194 4.12557 6.79754 3.91425 6.5815L3.85925 6.5265C3.68879 6.35624 3.55357 6.15404 3.46131 5.93148C3.36904 5.70891 3.32156 5.47035 3.32156 5.22942C3.32156 4.98849 3.36904 4.74993 3.46131 4.52736C3.55357 4.3048 3.68879 4.1026 3.85925 3.93234C4.02952 3.76188 4.23171 3.62666 4.45427 3.53439C4.67684 3.44213 4.9154 3.39464 5.15633 3.39464C5.39726 3.39464 5.63583 3.44213 5.85839 3.53439C6.08095 3.62666 6.28315 3.76188 6.45341 3.93234L6.50841 3.98734C6.72445 4.19866 6.99885 4.34042 7.29621 4.39434C7.59357 4.44826 7.90027 4.41186 8.17675 4.28984H8.25008C8.5212 4.17364 8.75243 3.9807 8.9153 3.73476C9.07817 3.48883 9.16557 3.20064 9.16675 2.90567V2.74984C9.16675 2.26361 9.3599 1.79729 9.70372 1.45347C10.0475 1.10966 10.5139 0.916504 11.0001 0.916504C11.4863 0.916504 11.9526 1.10966 12.2964 1.45347C12.6403 1.79729 12.8334 2.26361 12.8334 2.74984V2.83234C12.8346 3.12731 12.922 3.4155 13.0849 3.66143C13.2477 3.90736 13.479 4.1003 13.7501 4.2165C14.0266 4.33853 14.3333 4.37493 14.6306 4.32101C14.928 4.26709 15.2024 4.12533 15.4184 3.914L15.4734 3.859C15.6437 3.68855 15.8459 3.55332 16.0684 3.46106C16.291 3.3688 16.5296 3.32131 16.7705 3.32131C17.0114 3.32131 17.25 3.3688 17.4726 3.46106C17.6951 3.55332 17.8973 3.68855 18.0676 3.859C18.238 4.02927 18.3733 4.23147 18.4655 4.45403C18.5578 4.67659 18.6053 4.91516 18.6053 5.15609C18.6053 5.39702 18.5578 5.63558 18.4655 5.85814C18.3733 6.08071 18.238 6.2829 18.0676 6.45317L18.0126 6.50817C17.8013 6.72421 17.6595 6.9986 17.6056 7.29596C17.5517 7.59333 17.5881 7.90002 17.7101 8.1765V8.24984C17.8263 8.52096 18.0192 8.75219 18.2652 8.91506C18.5111 9.07792 18.7993 9.16533 19.0942 9.1665H19.2501C19.7363 9.1665 20.2026 9.35966 20.5464 9.70347C20.8903 10.0473 21.0834 10.5136 21.0834 10.9998C21.0834 11.4861 20.8903 11.9524 20.5464 12.2962C20.2026 12.64 19.7363 12.8332 19.2501 12.8332H19.1676C18.8726 12.8343 18.5844 12.9217 18.3385 13.0846C18.0926 13.2475 17.8996 13.4787 17.7834 13.7498Z" stroke="white" stroke-linecap="round" stroke-linejoin="round"/>
</g>
<defs>
<clipPath id="clip0_2059_10459">
<rect width="22" height="22" fill="white"/>
</clipPath>
</defs>
</svg>
